<?xml version="1.0" encoding="utf-8"?>
<!-- Generator: Adobe Illustrator 15.0.0, SVG Export Plug-In . SVG Version: 6.00 Build 0)  -->
<!DOCTYPE svg PUBLIC "-//W3C//DTD SVG 1.1//EN" "http://www.w3.org/Graphics/SVG/1.1/DTD/svg11.dtd">
<svg version="1.1" xmlns="http://www.w3.org/2000/svg" xmlns:xlink="http://www.w3.org/1999/xlink" x="0px" y="0px" width="1200px"
	 height="1200px" viewBox="-344 -344 1200 1200" enable-background="new -344 -344 1200 1200" xml:space="preserve">
<g id="Capa_1" display="none">
	<g display="inline">
		<path id="Dribbble" fill="#5B6770" d="M255.99,0C114.603,0.011,0,114.62,0,256.011C0,397.377,114.603,511.999,255.99,511.999
			s255.995-114.622,256.009-255.988C511.984,114.62,397.377,0.011,255.99,0z M412.844,132.733
			c24.978,31.718,40.617,70.991,42.589,113.88c-28.899-6.134-56.205-9.119-81.661-9.119v-0.006h-0.188
			c-20.495,0-39.729,1.861-57.856,5.076c-4.406-10.798-8.872-21.17-13.371-31.104C342.728,193.753,381.479,168.539,412.844,132.733z
			 M255.99,56.281c47.11,0,90.328,16.47,124.543,43.889c-26.184,31.347-60.743,54.05-98.078,70.081
			c-26.233-50.728-51.582-87.017-68.91-109.204C227.262,58.003,241.42,56.281,255.99,56.281z M167.772,77.101
			c13.863,16.375,41.619,52.392,71.264,108.625c-60.291,17.947-121.002,22.164-157.736,22.153c-1.048,0-2.083,0-3.1-0.011h-0.033
			c-6.187,0-11.506-0.098-15.947-0.233C76.551,150.289,115.837,102.797,167.772,77.101z M56.265,256.011
			c0-0.939,0.033-1.894,0.089-2.877c5.703,0.21,13.017,0.392,21.819,0.392h0.05c40.147-0.262,110.245-3.617,181.284-26.044
			c3.872,8.467,7.705,17.283,11.494,26.436c-47.44,15.866-84.804,41.144-112.439,66.316c-26.605,24.232-44.58,48.234-55.082,64.257
			C74.092,349.694,56.28,304.979,56.265,256.011z M255.99,455.744c-44.447,0-85.414-14.7-118.648-39.365
			c7.064-11.634,22.209-33.968,46.326-57.045c24.813-23.778,59.066-48.256,103.789-62.822
			c15.201,42.612,28.956,91.323,39.434,146.155C304.816,451.072,280.967,455.744,255.99,455.744z M369.029,420.278
			c-10.135-49.59-22.873-94.306-36.861-134.212c12.971-1.86,26.588-2.91,40.961-2.91h0.516h0.033h0.033
			c23.822,0,50,2.96,78.389,9.41C442.272,345.378,411.684,390.86,369.029,420.278z"/>
	</g>
</g>
<g id="Layer_3" display="none">
	<g display="inline">
		<path fill="#5B6770" d="M476.4,132.163c-22.832-39.12-53.802-70.09-92.918-92.92C344.36,16.412,301.65,5,255.323,5
			c-46.322,0-89.045,11.416-128.159,34.243c-39.121,22.828-70.088,53.8-92.921,92.921C11.415,171.282,0,214,0,260.314
			c0,55.638,16.232,105.667,48.704,150.101c32.469,44.439,74.414,75.192,125.831,92.257c5.985,1.108,10.416,0.328,13.296-2.326
			c2.882-2.658,4.321-5.984,4.321-9.969c0-0.667-0.057-6.646-0.167-17.953c-0.115-11.305-0.168-21.168-0.168-29.584l-7.647,1.326
			c-4.875,0.891-11.026,1.27-18.451,1.161c-7.422-0.104-15.126-0.881-23.104-2.328c-7.98-1.432-15.404-4.757-22.275-9.967
			c-6.868-5.206-11.743-12.024-14.625-20.44l-3.324-7.65c-2.216-5.094-5.705-10.75-10.47-16.953
			c-4.767-6.207-9.585-10.416-14.461-12.631l-2.328-1.667c-1.551-1.108-2.99-2.444-4.321-3.992c-1.33-1.55-2.326-3.101-2.99-4.656
			c-0.667-1.553-0.115-2.827,1.661-3.83c1.775-0.997,4.985-1.482,9.641-1.482l6.646,0.992c4.433,0.89,9.917,3.543,16.457,7.978
			c6.537,4.431,11.911,10.193,16.123,17.283c5.101,9.088,11.245,16.015,18.451,20.782c7.201,4.765,14.461,7.143,21.774,7.143
			s13.628-0.555,18.95-1.656c5.315-1.108,10.303-2.777,14.959-4.989c1.994-14.857,7.425-26.269,16.287-34.245
			c-12.631-1.328-23.987-3.328-34.075-5.987c-10.081-2.661-20.499-6.981-31.247-12.971c-10.753-5.979-19.674-13.411-26.764-22.27
			c-7.092-8.868-12.912-20.507-17.452-34.91c-4.542-14.407-6.814-31.029-6.814-49.867c0-26.822,8.756-49.646,26.266-68.487
			c-8.202-20.166-7.428-42.771,2.325-67.816c6.427-1.997,15.959-0.498,28.591,4.486c12.634,4.988,21.884,9.26,27.76,12.802
			c5.876,3.541,10.583,6.542,14.129,8.975c20.617-5.76,41.892-8.641,63.832-8.641c21.939,0,43.22,2.881,63.835,8.641l12.635-7.975
			c8.638-5.322,18.839-10.198,30.579-14.631c11.747-4.431,20.73-5.651,26.938-3.654c9.971,25.045,10.858,47.65,2.653,67.816
			c17.509,18.839,26.27,41.671,26.27,68.487c0,18.837-2.28,35.51-6.815,50.031c-4.541,14.521-10.411,26.149-17.613,34.907
			c-7.208,8.759-16.187,16.128-26.933,22.106c-10.751,5.984-21.173,10.306-31.253,12.969c-10.088,2.662-21.444,4.662-34.074,5.992
			c11.521,9.969,17.282,25.705,17.282,47.204v70.142c0,3.984,1.385,7.31,4.159,9.969c2.77,2.653,7.145,3.434,13.129,2.323
			c51.425-17.062,93.37-47.815,125.836-92.251c32.465-44.437,48.702-94.467,48.702-150.102
			C510.639,213.997,499.218,171.282,476.4,132.163z"/>
	</g>
</g>
<g id="Layer_4">
	<g>
		<path id="Twitter__x28_alt_x29_" fill="#5B6770" d="M525.582,229.387c39.155-3.231,65.712-21.03,75.936-45.182
			c-14.125,8.677-57.969,18.136-82.183,9.126c-1.187-5.688-2.512-11.092-3.813-15.971
			c-18.449-67.746-81.617-122.326-147.808-115.732c5.355-2.163,10.788-4.174,16.203-5.982c7.284-2.61,50.029-9.565,43.3-24.652
			c-5.674-13.271-57.899,10.03-67.733,13.075c12.981-4.882,34.448-13.279,36.749-28.196c-19.888,2.728-39.41,12.13-54.496,25.802
			c5.445-5.863,9.578-13.007,10.455-20.697c-53.043,33.887-84.026,102.205-109.103,168.473
			c-19.69-19.081-37.142-34.107-52.796-42.452C146.374,123.448,93.86,98.875,11.428,68.274
			c-2.531,27.273,13.489,63.537,59.646,87.653c-10-1.339-28.288,1.648-42.914,5.151c5.957,31.245,25.409,56.986,78.072,69.434
			c-24.066,1.588-36.505,7.065-47.777,18.87c10.961,21.73,37.709,47.304,85.827,42.054c-53.497,23.059-21.813,65.758,21.716,59.391
			c-74.258,76.701-191.335,71.064-258.565,6.908c175.532,239.188,557.099,141.455,613.96-88.926
			c42.603,0.365,67.649-14.756,83.177-31.426C580.023,241.547,544.449,237.243,525.582,229.387z"/>
	</g>
</g>
<g id="Layer_5" display="none">
	<g display="inline">
		<path id="LinkedIn" fill="#5B6770" d="M490.25,288.632V461.84H389.835V300.232c0-40.598-14.523-68.303-50.87-68.303
			c-27.746,0-44.258,18.67-51.522,36.733c-2.649,6.457-3.331,15.444-3.331,24.483V461.84H183.663c0,0,1.353-273.71,0-302.068
			h100.438v42.817c-0.203,0.32-0.468,0.666-0.659,0.976h0.659v-0.976c13.345-20.553,37.176-49.914,90.518-49.914
			C440.707,152.674,490.25,195.848,490.25,288.632z M78.59,14.16c-34.363,0-56.84,22.54-56.84,52.18
			c0,28.994,21.826,52.218,55.506,52.218h0.671c35.029,0,56.813-23.219,56.813-52.218C134.081,36.699,112.957,14.16,78.59,14.16z
			 M27.716,461.84h100.41V159.771H27.716V461.84z"/>
	</g>
</g>
<g id="Layer_2">
</g>
</svg>
