<?xml version="1.0" encoding="utf-8"?>
<!-- Generator: Adobe Illustrator 15.0.0, SVG Export Plug-In . SVG Version: 6.00 Build 0)  -->
<!DOCTYPE svg PUBLIC "-//W3C//DTD SVG 1.1//EN" "http://www.w3.org/Graphics/SVG/1.1/DTD/svg11.dtd">
<svg version="1.1" id="Capa_1" xmlns="http://www.w3.org/2000/svg" xmlns:xlink="http://www.w3.org/1999/xlink" x="0px" y="0px"
	 width="720px" height="720px" viewBox="0 0 720 720" enable-background="new 0 0 720 720" xml:space="preserve">
<g>
	<g>
		<g>
			<path fill="#C6DAE7" d="M415.249,293.824l19.921,10.053c7.24-3.045,8.023-4.104,10.93-10.93
				c4.796-8.992,7.839-33.757-3.413-45.01c-0.875-1.432-3.229-0.738-3.229,1.062c0.37,5.211-5.209,24.948-18.493,28.177
				c-2.165,1.062-4.288,2.167-6.27,3.965C408.791,286.49,413.451,293.271,415.249,293.824z"/>
			<path fill="#A6BBC8" d="M360.001,345.474c-26.562-40.168,28.684-98.458,0-98.458c-62.396,0-112.984,50.591-112.984,112.984
				s50.588,112.984,112.984,112.984c62.395,0,112.984-50.591,112.984-112.984C472.985,326.289,404.643,413.448,360.001,345.474z
				 M264.4,349.763c0-10.054,8.255-18.309,18.309-18.309c10.056,0,18.31,8.255,18.31,18.309s-8.254,18.31-18.31,18.31
				C272.655,368.071,264.4,360,264.4,349.763z M298.666,425.303c-10.054,0-18.31-8.257-18.31-18.31s8.256-18.309,18.31-18.309
				c10.237,0,18.308,8.069,18.308,18.309C316.974,417.229,308.903,425.303,298.666,425.303z M312.824,316.788
				c-10.056,0-18.31-8.253-18.31-18.307s8.254-18.31,18.31-18.31c10.053,0,18.308,8.256,18.308,18.31
				C331.132,308.719,323.062,316.788,312.824,316.788z M351.561,456.66c-10.054,0-18.307-8.255-18.307-18.311
				c0-10.052,8.253-18.308,18.307-18.308c10.056,0,18.311,8.256,18.311,18.308C369.87,448.405,361.615,456.66,351.561,456.66z
				 M410.22,438.215c-10.053,0-18.308-8.255-18.308-18.31c0-10.053,8.255-18.309,18.308-18.309c10.058,0,18.311,8.256,18.311,18.309
				C428.529,429.96,420.276,438.215,410.22,438.215z"/>
			<path fill="#C6DAE7" d="M405.009,363.044l26.38-50.914l-19.923-9.866c-0.186,0-0.186-0.186-0.367-0.186l-23.337,57.369
				C394.217,363.044,402.52,363.136,405.009,363.044z"/>
		</g>
	</g>
</g>
</svg>
