<?xml version="1.0" encoding="utf-8"?>
<!-- Generator: Adobe Illustrator 15.0.0, SVG Export Plug-In . SVG Version: 6.00 Build 0)  -->
<!DOCTYPE svg PUBLIC "-//W3C//DTD SVG 1.1//EN" "http://www.w3.org/Graphics/SVG/1.1/DTD/svg11.dtd">
<svg version="1.1"
	 id="svg2" inkscape:version="0.43" sodipodi:version="0.32" sodipodi:docname="logo-python-inkscape.svg" sodipodi:docbase="/home/sdeibel" xmlns:inkscape="http://www.inkscape.org/namespaces/inkscape" xmlns:sodipodi="http://inkscape.sourceforge.net/DTD/sodipodi-0.dtd" xmlns:svg="http://www.w3.org/2000/svg" xmlns:rdf="http://www.w3.org/1999/02/22-rdf-syntax-ns#" xmlns:cc="http://web.resource.org/cc/" xmlns:dc="http://purl.org/dc/elements/1.1/"
	 xmlns="http://www.w3.org/2000/svg" xmlns:xlink="http://www.w3.org/1999/xlink" x="0px" y="0px" width="443.41px"
	 height="119.748px" viewBox="0 3.262 443.41 119.748" enable-background="new 0 3.262 443.41 119.748" xml:space="preserve">
<g>
	
		<sodipodi:namedview  height="40mm" width="210mm" units="mm" id="base" inkscape:window-width="1233" guidetolerance="10.0" inkscape:window-height="882" gridtolerance="10.0" borderopacity="1.0" objecttolerance="10.0" inkscape:pageshadow="2" inkscape:pageopacity="0.0" bordercolor="#666666" inkscape:zoom="2.1461642" pagecolor="#ffffff" inkscape:cx="250.73166" inkscape:cy="67.50975" inkscape:window-x="0" inkscape:window-y="6" inkscape:current-layer="svg2">
		</sodipodi:namedview>
	<path id="path46" fill="#646464" d="M179.962,62.345c0-14.665-4.182-22.194-12.544-22.606c-3.328-0.157-6.578,0.373-9.738,1.6
		c-2.523,0.903-4.221,1.797-5.114,2.7v35.004c5.35,3.358,10.101,4.919,14.243,4.673C175.575,83.136,179.962,76.02,179.962,62.345z
		 M190.279,62.953c0,7.451-1.748,13.636-5.261,18.553c-3.917,5.566-9.345,8.433-16.286,8.59c-5.232,0.166-10.621-1.473-16.167-4.908
		v31.814l-8.971-3.2V43.184c1.471-1.806,3.366-3.357,5.663-4.672c5.34-3.112,11.83-4.712,19.466-4.791l0.127,0.128
		c6.98-0.088,12.359,2.777,16.139,8.589C188.512,47.769,190.279,54.6,190.279,62.953z"/>
	<path id="path48" fill="#646464" d="M245.112,83.833c0,9.993-1.001,16.913-3.003,20.762c-2.013,3.847-5.84,6.919-11.495,9.207
		c-4.584,1.806-9.542,2.788-14.861,2.954l-1.482-5.653c5.409-0.736,9.217-1.473,11.426-2.209c4.35-1.473,7.333-3.729,8.972-6.754
		c1.315-2.464,1.963-7.166,1.963-14.125v-2.337c-6.135,2.788-12.563,4.172-19.288,4.172c-4.418,0-8.314-1.384-11.672-4.172
		c-3.769-3.033-5.653-6.88-5.653-11.543V36.794l8.972-3.073v37.586c0,4.015,1.296,7.106,3.887,9.275
		c2.593,2.17,5.949,3.211,10.062,3.132c4.113-0.089,8.521-1.679,13.204-4.79V35.076h8.971V83.833z"/>
	<path id="path50" fill="#646464" d="M280.137,89.606c-1.07,0.088-2.052,0.126-2.955,0.126c-5.074,0-9.03-1.206-11.857-3.631
		c-2.817-2.425-4.23-5.771-4.23-10.042V40.72h-6.146v-5.644h6.146V20.087l8.962-3.19v18.18h10.081v5.644h-10.081v35.093
		c0,3.367,0.903,5.753,2.709,7.147c1.552,1.147,4.016,1.806,7.372,1.973V89.606z"/>
	<path id="path52" fill="#646464" d="M334.46,88.868h-8.972V54.237c0-3.524-0.825-6.557-2.464-9.089
		c-1.896-2.867-4.526-4.3-7.902-4.3c-4.113,0-9.258,2.169-15.432,6.508v41.513h-8.972V6.089l8.972-2.827v37.704
		c5.733-4.172,11.996-6.263,18.798-6.263c4.752,0,8.6,1.6,11.545,4.791c2.954,3.189,4.427,7.166,4.427,11.917V88.868L334.46,88.868z
		"/>
	<path id="path54" fill="#646464" d="M382.146,60.932c0-5.635-1.068-10.288-3.199-13.969c-2.533-4.486-6.469-6.852-11.79-7.097
		c-9.836,0.569-14.744,7.617-14.744,21.124c0,6.194,1.021,11.367,3.083,15.52c2.631,5.291,6.577,7.902,11.838,7.813
		C377.21,84.245,382.146,76.451,382.146,60.932z M391.973,60.99c0,8.021-2.052,14.695-6.145,20.025
		c-4.506,5.969-10.729,8.962-18.671,8.962c-7.872,0-14.007-2.993-18.435-8.962c-4.015-5.33-6.017-12.005-6.017-20.025
		c0-7.538,2.17-13.88,6.508-19.043c4.584-5.478,10.61-8.226,18.062-8.226s13.518,2.748,18.189,8.226
		C389.803,47.111,391.973,53.452,391.973,60.99z"/>
	<path id="path56" fill="#646464" d="M443.41,88.868h-8.973V52.274c0-4.015-1.207-7.146-3.622-9.404
		c-2.414-2.248-5.634-3.337-9.648-3.25c-4.261,0.079-8.314,1.474-12.163,4.172v45.076h-8.972V42.683
		c5.163-3.759,9.915-6.213,14.253-7.361c4.094-1.07,7.706-1.6,10.817-1.6c2.13,0,4.133,0.206,6.017,0.619
		c3.525,0.814,6.391,2.326,8.6,4.545c2.464,2.454,3.691,5.398,3.691,8.844V88.868z"/>
	
		<linearGradient id="path1948_1_" gradientUnits="userSpaceOnUse" x1="63.6113" y1="-204.9294" x2="173.4024" y2="-299.3899" gradientTransform="matrix(0.5625 0 0 -0.568 -38.8599 -106.7532)">
		<stop  offset="0" style="stop-color:#5A9FD4"/>
		<stop  offset="1" style="stop-color:#306998"/>
	</linearGradient>
	<path id="path1948" fill="url(#path1948_1_)" d="M54.98,6.42c-4.617,0.021-9.024,0.415-12.903,1.101
		c-11.427,2.02-13.502,6.244-13.502,14.037v10.291h27.003v3.431H28.575H18.441c-7.848,0-14.719,4.717-16.869,13.69
		c-2.479,10.286-2.59,16.704,0,27.443c1.919,7.995,6.503,13.69,14.351,13.69h9.284V77.766c0-8.912,7.712-16.774,16.87-16.774h26.971
		c7.508,0,13.501-6.181,13.501-13.721V21.558c0-7.317-6.174-12.815-13.501-14.037C64.409,6.749,59.595,6.398,54.98,6.42z
		 M40.377,14.697c2.789,0,5.067,2.315,5.067,5.161c0,2.836-2.278,5.13-5.067,5.13c-2.8,0-5.067-2.293-5.067-5.13
		C35.31,17.012,37.577,14.697,40.377,14.697z"/>
	
		<linearGradient id="path1950_1_" gradientUnits="userSpaceOnUse" x1="215.8467" y1="-356.5608" x2="176.6411" y2="-301.0916" gradientTransform="matrix(0.5625 0 0 -0.568 -38.8599 -106.7532)">
		<stop  offset="0" style="stop-color:#FFD43B"/>
		<stop  offset="1" style="stop-color:#FFE873"/>
	</linearGradient>
	<path id="path1950" fill="url(#path1950_1_)" d="M85.917,35.28V47.27c0,9.297-7.882,17.121-16.869,17.121H42.077
		c-7.389,0-13.502,6.322-13.502,13.722v25.712c0,7.318,6.363,11.623,13.502,13.722c8.546,2.514,16.743,2.968,26.971,0
		c6.798-1.968,13.501-5.93,13.501-13.722V93.533H55.578v-3.431h26.971H96.05c7.847,0,10.771-5.474,13.501-13.69
		c2.818-8.458,2.699-16.592,0-27.443c-1.939-7.812-5.645-13.69-13.501-13.69H85.917z M70.747,100.394
		c2.799,0,5.067,2.294,5.067,5.13c0,2.847-2.268,5.162-5.067,5.162c-2.789,0-5.067-2.315-5.067-5.162
		C65.68,102.688,67.958,100.394,70.747,100.394z"/>
</g>
</svg>
