<?xml version="1.0" encoding="utf-8"?>
<!-- Generator: Adobe Illustrator 15.0.0, SVG Export Plug-In . SVG Version: 6.00 Build 0)  -->
<!DOCTYPE svg PUBLIC "-//W3C//DTD SVG 1.1//EN" "http://www.w3.org/Graphics/SVG/1.1/DTD/svg11.dtd">
<svg version="1.1" id="Layer_1" xmlns="http://www.w3.org/2000/svg" xmlns:xlink="http://www.w3.org/1999/xlink" x="0px" y="0px"
	 width="720px" height="720px" viewBox="0 0 720 720" enable-background="new 0 0 720 720" xml:space="preserve">
<g>
	<path fill="#A6BBC8" d="M360.103,466.499c-4.119,0-7.459-3.342-7.459-7.46c0-4.12,3.34-7.46,7.459-7.46
		c1.279,0,2.319-1.041,2.319-2.319v-63.481c0-1.278-1.041-2.318-2.319-2.318H259.199c-1.279,0-2.32,1.04-2.32,2.318v63.481
		c0,1.278,1.041,2.319,2.32,2.319h75.287c4.119,0,7.459,3.341,7.459,7.46c0,4.12-3.34,7.46-7.459,7.46h-75.287
		c-9.506,0-17.24-7.735-17.24-17.239v-63.481c0-9.505,7.734-17.239,17.24-17.239h100.904c9.507,0,17.24,7.735,17.24,17.239v63.481
		C377.343,458.764,369.608,466.499,360.103,466.499z"/>
	<rect x="284.247" y="459.041" fill="#C6DAE7" width="50.811" height="23.902"/>
	<g>
		<path fill="#A6BBC8" d="M335.055,490.404h-50.809c-4.12,0-7.46-3.342-7.46-7.46v-23.905c0-4.12,3.34-7.46,7.46-7.46h50.809
			c4.12,0,7.46,3.34,7.46,7.46v23.905C342.515,487.065,339.175,490.404,335.055,490.404z M291.707,475.484h35.888v-8.986h-35.888
			V475.484z"/>
		<path fill="#A6BBC8" d="M349.805,490.404h-80.308c-4.12,0-7.46-3.342-7.46-7.46c0-4.12,3.34-7.46,7.46-7.46h80.311
			c4.12,0,7.459,3.34,7.459,7.46C357.267,487.062,353.925,490.404,349.805,490.404z"/>
		<path fill="#A6BBC8" d="M360.103,327.556c-4.119,0-7.459-3.341-7.459-7.46s3.34-7.46,7.459-7.46c1.279,0,2.319-1.041,2.319-2.32
			v-63.479c0-1.28-1.041-2.32-2.319-2.32H259.199c-1.279,0-2.32,1.041-2.32,2.32v63.48c0,1.279,1.041,2.32,2.32,2.32h75.287
			c4.119,0,7.459,3.34,7.459,7.46c0,4.119-3.34,7.46-7.459,7.46h-75.287c-9.506,0-17.24-7.733-17.24-17.24v-63.48
			c0-9.506,7.734-17.24,17.24-17.24h100.904c9.507,0,17.24,7.734,17.24,17.24v63.48
			C377.343,319.821,369.608,327.556,360.103,327.556z"/>
	</g>
	<rect x="284.247" y="320.096" fill="#C6DAE7" width="50.811" height="23.902"/>
	<g>
		<path fill="#A6BBC8" d="M335.055,351.461h-50.809c-4.12,0-7.46-3.341-7.46-7.459v-23.905c0-4.12,3.34-7.46,7.46-7.46h50.809
			c4.12,0,7.46,3.34,7.46,7.46v23.905C342.515,348.122,339.175,351.461,335.055,351.461z M291.707,336.542h35.888v-8.985h-35.888
			V336.542z"/>
		<path fill="#A6BBC8" d="M349.805,351.461h-80.308c-4.12,0-7.46-3.341-7.46-7.459c0-4.12,3.34-7.46,7.46-7.46h80.311
			c4.12,0,7.459,3.34,7.459,7.46C357.267,348.12,353.925,351.461,349.805,351.461z"/>
		<path fill="#A6BBC8" d="M454.003,424.979h-47.375c-4.12,0-7.46-3.342-7.46-7.46c0-4.119,3.34-7.461,7.46-7.461h39.915V286.036
			h-39.915c-4.12,0-7.46-3.342-7.46-7.46c0-4.119,3.34-7.46,7.46-7.46h47.375c4.121,0,7.46,3.341,7.46,7.46V417.52
			C461.463,421.638,458.124,424.979,454.003,424.979z"/>
	</g>
	<path fill="#C6DAE7" d="M488.508,351.167c1.29-2.492,2.023-5.318,2.023-8.317c0-10.008-8.113-18.122-18.122-18.122
		c-3.15,0-6.111,0.805-8.693,2.219c-5.203-6.663-13.308-10.95-22.417-10.95c-15.701,0-28.428,12.728-28.428,28.429
		c0,2.111,0.229,4.167,0.668,6.146c-5.462,2.371-9.312,7.822-9.312,14.132l0,0c0,8.467,6.93,15.396,15.397,15.396h61.58
		c8.468,0,15.396-6.928,15.396-15.396l0,0C496.604,358.873,493.317,353.776,488.508,351.167z"/>
	<path fill="#A6BBC8" d="M481.206,387.559h-61.58c-12.602,0-22.855-10.253-22.855-22.854c0-7.098,3.293-13.665,8.718-17.94
		c-0.052-0.778-0.076-1.56-0.076-2.34c0-19.788,16.099-35.887,35.888-35.887c9.206,0,17.855,3.447,24.451,9.613
		c2.163-0.583,4.405-0.882,6.658-0.882c14.104,0,25.582,11.478,25.582,25.582c0,1.916-0.22,3.829-0.646,5.694
		c4.242,4.229,6.717,10.012,6.717,16.159C504.063,377.306,493.81,387.559,481.206,387.559z M441.299,323.457
		c-11.561,0-20.968,9.404-20.968,20.966c0,1.528,0.168,3.057,0.495,4.543c0.768,3.485-1.041,7.026-4.314,8.448
		c-2.927,1.271-4.818,4.132-4.818,7.288c0,4.376,3.56,7.935,7.936,7.935h61.58c4.375,0,7.936-3.559,7.936-7.935
		c0-2.9-1.605-5.575-4.192-6.979c-3.569-1.938-4.935-6.378-3.066-9.985c0.788-1.521,1.188-3.167,1.188-4.888
		c0-5.879-4.781-10.661-10.661-10.661c-1.814,0-3.531,0.438-5.108,1.302c-3.206,1.756-7.214,0.93-9.466-1.951
		C453.826,326.401,447.799,323.457,441.299,323.457z"/>
</g>
</svg>
