<?xml version="1.0" encoding="utf-8"?>
<!-- Generator: Adobe Illustrator 15.0.0, SVG Export Plug-In . SVG Version: 6.00 Build 0)  -->
<!DOCTYPE svg PUBLIC "-//W3C//DTD SVG 1.1//EN" "http://www.w3.org/Graphics/SVG/1.1/DTD/svg11.dtd">
<svg version="1.1" id="Layer_1" xmlns="http://www.w3.org/2000/svg" xmlns:xlink="http://www.w3.org/1999/xlink" x="0px" y="0px"
	 width="1090px" height="280px" viewBox="0 0 1090 280" enable-background="new 0 0 1090 280" xml:space="preserve">
<g>
	<polygon fill="none" stroke="#FC4C02" stroke-width="12" stroke-miterlimit="10" points="236.46,83.663 312.644,63.251 
		254.066,149.374 	"/>
	<polygon fill="none" stroke="#FC4C02" stroke-width="12" stroke-miterlimit="10" points="95.075,83.852 18.893,63.438 
		74.661,160.034 	"/>
	<polygon fill="#FC4C02" points="86.214,179.649 165.084,272.014 243.921,179.649 	"/>
	<polygon fill="#FC4C02" points="86.214,139.618 165.084,231.982 243.921,139.618 	"/>
	<circle fill="#FFFFFF" stroke="#000000" stroke-width="12" stroke-miterlimit="10" cx="86.213" cy="140.214" r="78.871"/>
	<path d="M119.076,140.214c0,18.154-14.711,32.864-32.862,32.864c-18.149,0-32.863-14.71-32.863-32.864
		c0-18.148,14.714-32.862,32.863-32.862C104.364,107.352,119.076,122.066,119.076,140.214z"/>
	<circle fill="#FFFFFF" stroke="#000000" stroke-width="12" stroke-miterlimit="10" cx="243.92" cy="140.214" r="78.872"/>
	<path d="M276.785,140.214c0,18.154-14.715,32.864-32.864,32.864c-18.152,0-32.861-14.71-32.861-32.864
		c0-18.148,14.709-32.862,32.861-32.862C262.069,107.352,276.785,122.066,276.785,140.214z"/>
</g>
<text transform="matrix(1 0 0 1 290.0811 66.9375)" display="none" font-family="'CarterOne'" font-size="120">Screech Owl</text>
<g>
	<path fill="#FFFFFF" d="M388.801,162.705c0-0.039-0.01-0.078-0.029-0.117c-0.021-0.039-0.029-0.078-0.029-0.117
		c0-0.664,0.352-0.996,1.055-0.996c0.352,0,0.741,0.176,1.172,0.527c2.109,1.992,4.453,3.574,7.031,4.746s5.391,1.758,8.438,1.758
		c0.82,0,1.758-0.088,2.812-0.264s2.051-0.469,2.988-0.879s1.729-0.947,2.373-1.611s0.967-1.504,0.967-2.52
		c0-1.133-0.273-2.148-0.82-3.047c-0.548-0.898-1.27-1.66-2.168-2.285c-0.352-0.234-0.879-0.625-1.582-1.172
		s-1.504-1.172-2.402-1.875c-0.899-0.703-1.837-1.455-2.812-2.256c-0.977-0.801-1.904-1.562-2.783-2.285s-1.67-1.377-2.373-1.963
		s-1.23-1.035-1.582-1.348c-2.306-1.719-4.131-3.457-5.479-5.215s-2.373-3.593-3.076-5.508c-0.703-1.914-1.152-3.896-1.348-5.947
		c-0.196-2.051-0.293-4.228-0.293-6.533c0-3.437,0.82-6.699,2.461-9.785c1.641-3.085,3.955-5.771,6.943-8.057
		s6.571-4.102,10.752-5.449c4.18-1.348,8.827-2.021,13.945-2.021c0.624,0,1.562,0.069,2.812,0.205
		c1.25,0.137,2.627,0.362,4.131,0.674c1.503,0.313,3.037,0.743,4.6,1.289c1.562,0.547,2.988,1.25,4.277,2.109
		c0.43,0.313,0.771,0.625,1.025,0.938c0.254,0.313,0.419,0.801,0.498,1.465c0.195,3.164,0.352,6.28,0.469,9.346
		c0.117,3.067,0.272,6.319,0.469,9.756c0,0.665-0.138,1.104-0.41,1.318c-0.273,0.215-0.625,0.322-1.055,0.322
		c-0.431,0-0.762-0.117-0.996-0.352c-1.134-1.132-2.306-2.246-3.516-3.34c-1.211-1.093-2.481-2.06-3.809-2.9
		c-1.328-0.839-2.745-1.513-4.248-2.021c-1.504-0.507-3.135-0.762-4.893-0.762c-1.055,0-2.109,0.088-3.164,0.264
		s-2.013,0.498-2.871,0.967c-0.859,0.469-1.553,1.113-2.08,1.934s-0.791,1.856-0.791,3.105c0,1.329,0.166,2.481,0.498,3.457
		c0.331,0.977,1.162,1.895,2.49,2.754l14.062,9.551c2.578,1.836,4.667,3.662,6.27,5.479c1.602,1.816,2.851,3.623,3.75,5.42
		c0.898,1.797,1.514,3.564,1.846,5.303c0.331,1.738,0.498,3.447,0.498,5.127c0,2.734-0.449,5.312-1.348,7.734
		c-0.899,2.422-2.13,4.658-3.691,6.709c-1.562,2.051-3.39,3.887-5.479,5.508c-2.09,1.621-4.327,3.008-6.709,4.16
		c-2.383,1.152-4.854,2.031-7.412,2.637c-2.559,0.605-5.068,0.908-7.529,0.908c-1.914,0-3.8-0.029-5.654-0.088
		c-1.855-0.059-3.662-0.215-5.42-0.469s-3.457-0.645-5.098-1.172s-3.203-1.26-4.688-2.197L388.801,162.705z"/>
	<path fill="#FFFFFF" d="M449.27,155.908c0-5.117,0.946-9.912,2.842-14.385c1.895-4.472,4.512-8.369,7.852-11.689
		c3.34-3.32,7.285-5.937,11.836-7.852c4.55-1.914,9.501-2.871,14.854-2.871c3.633,0,6.738,0.293,9.316,0.879
		s4.688,1.241,6.328,1.963c1.641,0.723,2.842,1.387,3.604,1.992c0.762,0.606,1.143,0.928,1.143,0.967
		c0,0.234-0.088,0.889-0.264,1.963c-0.176,1.075-0.372,2.325-0.586,3.75c-0.215,1.426-0.41,2.891-0.586,4.395
		c-0.176,1.504-0.264,2.803-0.264,3.896c0,0.196-0.059,0.41-0.176,0.645s-0.431,0.352-0.938,0.352c-0.469,0-1.152-0.166-2.051-0.498
		c-0.899-0.332-2.002-0.693-3.311-1.084c-1.31-0.39-2.812-0.751-4.512-1.084c-1.699-0.332-3.584-0.498-5.654-0.498
		c-2.578,0-4.902,0.459-6.973,1.377c-2.071,0.918-3.848,2.188-5.332,3.809c-1.485,1.621-2.628,3.545-3.428,5.771
		c-0.801,2.227-1.201,4.629-1.201,7.207c0,2.695,0.419,4.99,1.26,6.885c0.84,1.895,1.963,3.438,3.369,4.629s3.026,2.061,4.863,2.607
		c1.836,0.547,3.77,0.82,5.801,0.82c2.344,0,4.707-0.322,7.09-0.967c2.382-0.645,4.629-1.553,6.738-2.725
		c0.078-0.039,0.234-0.059,0.469-0.059c0.195,0,0.342,0.098,0.439,0.293c0.097,0.195,0.146,0.566,0.146,1.113
		c0,1.25,0,2.764,0,4.541s-0.01,3.477-0.029,5.098c-0.021,1.621-0.05,2.998-0.088,4.131c-0.039,1.133-0.079,1.699-0.117,1.699
		c-1.406,0.938-2.93,1.699-4.57,2.285s-3.331,1.055-5.068,1.406c-1.738,0.352-3.486,0.586-5.244,0.703s-3.457,0.176-5.098,0.176
		c-4.57,0-8.828-0.762-12.773-2.285c-3.946-1.523-7.374-3.672-10.283-6.445c-2.91-2.773-5.206-6.104-6.885-9.99
		C450.109,164.941,449.27,160.635,449.27,155.908z"/>
	<path fill="#FFFFFF" d="M560.07,136.807c-0.82-0.078-1.738-0.166-2.754-0.264c-1.017-0.097-2.09-0.146-3.223-0.146
		c-1.72,0-3.467,0.146-5.244,0.439c-1.778,0.293-3.428,0.87-4.951,1.729c-1.523,0.86-2.833,2.042-3.926,3.545
		c-1.094,1.504-1.797,3.447-2.109,5.83c-0.273,2.891-0.498,5.264-0.674,7.119s-0.303,3.379-0.381,4.57
		c-0.079,1.191-0.146,2.148-0.205,2.871s-0.108,1.396-0.146,2.021c0,0.156-0.029,0.586-0.088,1.289s-0.146,1.523-0.264,2.461
		s-0.226,1.953-0.322,3.047c-0.098,1.094-0.205,2.109-0.322,3.047s-0.205,1.758-0.264,2.461s-0.088,1.133-0.088,1.289
		c0,0.312,0.009,0.576,0.029,0.791c0.02,0.215,0.029,0.42,0.029,0.615c0,0.312-0.146,0.576-0.439,0.791s-0.947,0.459-1.963,0.732
		l-15.527,5.566c-0.431,0.156-0.996,0.352-1.699,0.586s-1.387,0.352-2.051,0.352c-0.548,0-1.025-0.137-1.436-0.41
		s-0.615-0.742-0.615-1.406l5.039-58.066c0.117-1.289,0.264-2.177,0.439-2.666c0.176-0.488,0.615-0.81,1.318-0.967
		c3.554-0.703,7.227-1.416,11.016-2.139c3.788-0.722,7.461-1.65,11.016-2.783c0.312,0,0.498,0.049,0.557,0.146
		c0.059,0.098,0.088,0.245,0.088,0.439c0,0.079-0.01,0.196-0.029,0.352c-0.021,0.157-0.079,0.508-0.176,1.055
		c-0.098,0.547-0.234,1.377-0.41,2.49s-0.42,2.666-0.732,4.658c1.796-1.406,3.779-2.695,5.947-3.867s4.345-2.177,6.533-3.018
		c2.188-0.839,4.297-1.503,6.328-1.992c2.03-0.488,3.809-0.732,5.332-0.732L560.07,136.807z"/>
	<path fill="#FFFFFF" d="M598.801,119.111c3.711,0,7.08,0.694,10.107,2.08c3.026,1.387,5.625,3.184,7.793,5.391
		c2.168,2.208,3.838,4.678,5.01,7.412c1.172,2.735,1.758,5.469,1.758,8.203c0,2.422-0.742,4.854-2.227,7.295
		c-1.485,2.441-3.565,4.639-6.24,6.592c-2.676,1.953-5.889,3.535-9.639,4.746s-7.872,1.816-12.363,1.816
		c-2.344,0-4.805-0.234-7.383-0.703c0.155,1.68,0.645,3.125,1.465,4.336s1.854,2.207,3.105,2.988
		c1.25,0.781,2.666,1.357,4.248,1.729s3.213,0.557,4.893,0.557c1.875,0,3.682-0.166,5.42-0.498c1.737-0.332,3.407-0.771,5.01-1.318
		c1.602-0.547,3.144-1.152,4.629-1.816c1.484-0.664,2.891-1.328,4.219-1.992c0.352-0.078,0.653-0.146,0.908-0.205
		c0.254-0.059,0.498-0.088,0.732-0.088c-0.039,1.25-0.059,2.441-0.059,3.574s-0.01,2.5-0.029,4.102
		c-0.021,1.602-0.05,3.379-0.088,5.332c0.117,0.195,0.195,0.391,0.234,0.586c0.038,0.195,0.059,0.352,0.059,0.469
		c0,0.469-0.431,0.977-1.289,1.523c-0.859,0.547-1.983,1.113-3.369,1.699c-1.387,0.586-2.969,1.152-4.746,1.699
		c-1.778,0.547-3.584,1.045-5.42,1.494c-1.837,0.449-3.613,0.801-5.332,1.055c-1.72,0.254-3.223,0.381-4.512,0.381
		c-4.219,0-8.312-0.732-12.275-2.197c-3.965-1.465-7.48-3.564-10.547-6.299c-3.067-2.734-5.518-6.055-7.354-9.961
		c-1.837-3.906-2.754-8.301-2.754-13.184c0-5.117,0.879-9.912,2.637-14.385c1.758-4.472,4.228-8.369,7.412-11.689
		c3.184-3.32,6.981-5.937,11.396-7.852C588.625,120.069,593.488,119.111,598.801,119.111z M598.098,134.697
		c-1.603,0-3.076,0.342-4.424,1.025c-1.348,0.684-2.578,1.661-3.691,2.93c-1.113,1.27-2.08,2.793-2.9,4.57s-1.485,3.74-1.992,5.889
		c4.022-0.703,7.362-1.445,10.02-2.227c2.656-0.781,4.784-1.572,6.387-2.373c1.602-0.801,2.733-1.602,3.398-2.402
		c0.664-0.801,0.996-1.572,0.996-2.314c0-0.703-0.264-1.367-0.791-1.992c-0.527-0.625-1.182-1.172-1.963-1.641
		c-0.782-0.469-1.632-0.83-2.549-1.084C599.67,134.825,598.839,134.697,598.098,134.697z"/>
	<path fill="#FFFFFF" d="M665.715,119.111c3.711,0,7.08,0.694,10.107,2.08c3.026,1.387,5.625,3.184,7.793,5.391
		c2.168,2.208,3.838,4.678,5.01,7.412c1.172,2.735,1.758,5.469,1.758,8.203c0,2.422-0.742,4.854-2.227,7.295
		c-1.485,2.441-3.565,4.639-6.24,6.592c-2.676,1.953-5.889,3.535-9.639,4.746s-7.872,1.816-12.363,1.816
		c-2.344,0-4.805-0.234-7.383-0.703c0.155,1.68,0.645,3.125,1.465,4.336s1.854,2.207,3.105,2.988
		c1.25,0.781,2.666,1.357,4.248,1.729s3.213,0.557,4.893,0.557c1.875,0,3.682-0.166,5.42-0.498c1.737-0.332,3.407-0.771,5.01-1.318
		c1.602-0.547,3.144-1.152,4.629-1.816c1.484-0.664,2.891-1.328,4.219-1.992c0.352-0.078,0.653-0.146,0.908-0.205
		c0.254-0.059,0.498-0.088,0.732-0.088c-0.039,1.25-0.059,2.441-0.059,3.574s-0.01,2.5-0.029,4.102
		c-0.021,1.602-0.05,3.379-0.088,5.332c0.117,0.195,0.195,0.391,0.234,0.586c0.038,0.195,0.059,0.352,0.059,0.469
		c0,0.469-0.431,0.977-1.289,1.523c-0.859,0.547-1.983,1.113-3.369,1.699c-1.387,0.586-2.969,1.152-4.746,1.699
		c-1.778,0.547-3.584,1.045-5.42,1.494c-1.837,0.449-3.613,0.801-5.332,1.055c-1.72,0.254-3.223,0.381-4.512,0.381
		c-4.219,0-8.312-0.732-12.275-2.197c-3.965-1.465-7.48-3.564-10.547-6.299c-3.067-2.734-5.518-6.055-7.354-9.961
		c-1.837-3.906-2.754-8.301-2.754-13.184c0-5.117,0.879-9.912,2.637-14.385c1.758-4.472,4.228-8.369,7.412-11.689
		c3.184-3.32,6.981-5.937,11.396-7.852C655.539,120.069,660.402,119.111,665.715,119.111z M665.012,134.697
		c-1.603,0-3.076,0.342-4.424,1.025c-1.348,0.684-2.578,1.661-3.691,2.93c-1.113,1.27-2.08,2.793-2.9,4.57s-1.485,3.74-1.992,5.889
		c4.022-0.703,7.362-1.445,10.02-2.227c2.656-0.781,4.784-1.572,6.387-2.373c1.602-0.801,2.733-1.602,3.398-2.402
		c0.664-0.801,0.996-1.572,0.996-2.314c0-0.703-0.264-1.367-0.791-1.992c-0.527-0.625-1.182-1.172-1.963-1.641
		c-0.782-0.469-1.632-0.83-2.549-1.084C666.584,134.825,665.753,134.697,665.012,134.697z"/>
	<path fill="#FFFFFF" d="M696.535,155.908c0-5.117,0.946-9.912,2.842-14.385c1.895-4.472,4.512-8.369,7.852-11.689
		c3.34-3.32,7.285-5.937,11.836-7.852c4.55-1.914,9.501-2.871,14.854-2.871c3.633,0,6.738,0.293,9.316,0.879
		s4.688,1.241,6.328,1.963c1.641,0.723,2.842,1.387,3.604,1.992c0.762,0.606,1.143,0.928,1.143,0.967
		c0,0.234-0.088,0.889-0.264,1.963c-0.176,1.075-0.372,2.325-0.586,3.75c-0.215,1.426-0.41,2.891-0.586,4.395
		c-0.176,1.504-0.264,2.803-0.264,3.896c0,0.196-0.059,0.41-0.176,0.645s-0.431,0.352-0.938,0.352c-0.469,0-1.152-0.166-2.051-0.498
		c-0.899-0.332-2.002-0.693-3.311-1.084c-1.31-0.39-2.812-0.751-4.512-1.084c-1.699-0.332-3.584-0.498-5.654-0.498
		c-2.578,0-4.902,0.459-6.973,1.377c-2.071,0.918-3.848,2.188-5.332,3.809c-1.485,1.621-2.628,3.545-3.428,5.771
		c-0.801,2.227-1.201,4.629-1.201,7.207c0,2.695,0.419,4.99,1.26,6.885c0.84,1.895,1.963,3.438,3.369,4.629s3.026,2.061,4.863,2.607
		c1.836,0.547,3.77,0.82,5.801,0.82c2.344,0,4.707-0.322,7.09-0.967c2.382-0.645,4.629-1.553,6.738-2.725
		c0.078-0.039,0.234-0.059,0.469-0.059c0.195,0,0.342,0.098,0.439,0.293c0.097,0.195,0.146,0.566,0.146,1.113
		c0,1.25,0,2.764,0,4.541s-0.01,3.477-0.029,5.098c-0.021,1.621-0.05,2.998-0.088,4.131c-0.039,1.133-0.079,1.699-0.117,1.699
		c-1.406,0.938-2.93,1.699-4.57,2.285s-3.331,1.055-5.068,1.406c-1.738,0.352-3.486,0.586-5.244,0.703s-3.457,0.176-5.098,0.176
		c-4.57,0-8.828-0.762-12.773-2.285c-3.946-1.523-7.374-3.672-10.283-6.445c-2.91-2.773-5.206-6.104-6.885-9.99
		C697.375,164.941,696.535,160.635,696.535,155.908z"/>
	<path fill="#FFFFFF" d="M766.086,99.307c0-0.234-0.01-0.449-0.029-0.645c-0.021-0.195-0.029-0.39-0.029-0.586
		c0-0.352,0.137-0.654,0.41-0.908c0.272-0.253,0.938-0.517,1.992-0.791l16.465-3.926c0.43-0.078,0.996-0.253,1.699-0.527
		c0.703-0.273,1.386-0.41,2.051-0.41c1.367,0,2.051,0.625,2.051,1.875c0,0.079-0.059,0.879-0.176,2.402s-0.273,3.418-0.469,5.684
		c-0.196,2.266-0.41,4.737-0.645,7.412c-0.234,2.676-0.469,5.225-0.703,7.646c-0.234,2.422-0.449,4.541-0.645,6.357
		c-0.196,1.816-0.352,2.999-0.469,3.545c1.836-1.015,3.75-1.972,5.742-2.871c1.992-0.898,3.993-1.679,6.006-2.344
		c2.012-0.664,4.022-1.181,6.035-1.553c2.012-0.371,3.955-0.557,5.83-0.557c2.382,0,4.608,0.342,6.68,1.025
		c2.07,0.684,3.876,1.816,5.42,3.398c1.543,1.582,2.754,3.653,3.633,6.211c0.879,2.559,1.318,5.694,1.318,9.404
		c0,0.938-0.021,1.904-0.059,2.9c-0.039,0.996-0.117,2.021-0.234,3.076l-2.52,23.965c-0.196,1.641-0.313,3.35-0.352,5.127
		c-0.039,1.777-0.059,3.604-0.059,5.479c0,0.312,0.009,0.576,0.029,0.791c0.02,0.215,0.029,0.4,0.029,0.557
		c0,0.352-0.146,0.625-0.439,0.82s-0.947,0.449-1.963,0.762l-14.355,3.984c-0.431,0.117-0.996,0.303-1.699,0.557
		s-1.387,0.381-2.051,0.381c-0.665,0-1.172-0.146-1.523-0.439s-0.527-0.869-0.527-1.729c0.272-2.93,0.498-5.293,0.674-7.09
		s0.312-3.232,0.41-4.307c0.097-1.074,0.185-1.895,0.264-2.461c0.078-0.566,0.137-1.074,0.176-1.523
		c0.038-0.449,0.097-0.957,0.176-1.523c0.078-0.566,0.166-1.396,0.264-2.49c0.097-1.094,0.234-2.539,0.41-4.336s0.4-4.16,0.674-7.09
		c0.155-1.562,0.322-3.115,0.498-4.658s0.264-2.959,0.264-4.248c0-1.641-0.088-3.135-0.264-4.482s-0.489-2.5-0.938-3.457
		c-0.449-0.957-1.064-1.708-1.846-2.256c-0.782-0.546-1.778-0.82-2.988-0.82c-0.899,0-2.119,0.196-3.662,0.586
		c-1.544,0.391-3.086,1.036-4.629,1.934c-1.544,0.899-2.91,2.08-4.102,3.545c-1.192,1.465-1.866,3.271-2.021,5.42
		c-0.313,3.008-0.557,5.469-0.732,7.383s-0.322,3.496-0.439,4.746s-0.205,2.246-0.264,2.988s-0.108,1.426-0.146,2.051
		c-0.039,0.195-0.098,0.674-0.176,1.436c-0.079,0.762-0.176,1.67-0.293,2.725s-0.234,2.178-0.352,3.369s-0.226,2.314-0.322,3.369
		c-0.098,1.055-0.176,1.963-0.234,2.725s-0.088,1.24-0.088,1.436c0,0.312,0.009,0.576,0.029,0.791
		c0.02,0.215,0.029,0.42,0.029,0.615c0,0.312-0.146,0.576-0.439,0.791s-0.947,0.459-1.963,0.732l-15.293,5.332
		c-0.431,0.156-0.996,0.352-1.699,0.586s-1.387,0.352-2.051,0.352c-0.586,0-1.075-0.166-1.465-0.498
		c-0.391-0.332-0.586-0.889-0.586-1.67L766.086,99.307z"/>
	<path fill="#FFFFFF" d="M900.266,187.549c-5.859,0-11.095-1.094-15.703-3.281c-4.609-2.188-8.506-5.146-11.689-8.877
		c-3.185-3.73-5.625-8.047-7.324-12.949S863,152.354,863,146.885c0-6.132,0.869-11.787,2.607-16.963
		c1.737-5.175,4.169-9.765,7.295-13.77c3.125-4.003,6.846-7.383,11.162-10.137c4.315-2.754,9.053-4.794,14.209-6.123
		c0.469,0,0.829-0.371,1.084-1.113c0.254-0.742,0.478-1.562,0.674-2.461c0.195-0.898,0.43-1.718,0.703-2.461
		c0.272-0.742,0.664-1.113,1.172-1.113c7.578,0.782,14.394,2.12,20.449,4.014c6.055,1.895,11.191,4.6,15.41,8.115
		s7.45,7.959,9.697,13.33c2.246,5.372,3.369,11.924,3.369,19.658c0,4.961-0.606,9.629-1.816,14.004
		c-1.211,4.375-2.91,8.408-5.098,12.1c-2.188,3.691-4.814,6.992-7.881,9.902c-3.067,2.91-6.475,5.381-10.225,7.412
		s-7.784,3.584-12.1,4.658C909.396,187.012,904.914,187.549,900.266,187.549z M888.84,144.541c0,2.812,0.302,5.635,0.908,8.467
		c0.605,2.832,1.611,5.381,3.018,7.646s3.261,4.102,5.566,5.508c2.305,1.406,5.156,2.109,8.555,2.109
		c2.616-0.156,4.912-0.693,6.885-1.611c1.972-0.918,3.671-2.109,5.098-3.574c1.426-1.465,2.607-3.145,3.545-5.039
		s1.679-3.887,2.227-5.977c0.547-2.09,0.928-4.229,1.143-6.416c0.214-2.188,0.322-4.297,0.322-6.328
		c0-2.773-0.372-5.458-1.113-8.057c-0.742-2.597-1.855-4.893-3.34-6.885c-1.485-1.992-3.331-3.593-5.537-4.805
		c-2.207-1.21-4.775-1.816-7.705-1.816c-2.306,0-4.386,0.43-6.24,1.289c-1.855,0.86-3.507,2.002-4.951,3.428
		c-1.445,1.426-2.687,3.067-3.721,4.922c-1.035,1.856-1.896,3.77-2.578,5.742c-0.684,1.973-1.192,3.946-1.523,5.918
		C889.064,141.035,888.878,142.861,888.84,144.541z"/>
	<path fill="#FFFFFF" d="M993.371,124.854c0.117-0.429,0.448-0.703,0.996-0.82c3.164-0.703,6.406-1.425,9.727-2.168
		c3.319-0.742,6.504-1.66,9.551-2.754c0.547,0,0.82,0.196,0.82,0.586l5.977,39.961l11.191-39.961
		c0.155-0.39,0.448-0.586,0.879-0.586c0.117,0,0.195,0.01,0.234,0.029c0.038,0.02,0.117,0.029,0.234,0.029
		c2.93,1.133,5.938,2.061,9.023,2.783c3.085,0.723,6.152,1.417,9.199,2.08c0.741,0.157,1.113,0.586,1.113,1.289
		c0,0.508-0.234,1.289-0.703,2.344l-18.867,52.266c-0.313,0.664-0.586,1.221-0.82,1.67s-0.469,0.801-0.703,1.055
		s-0.489,0.449-0.762,0.586c-0.273,0.137-0.606,0.244-0.996,0.322c-2.969,0.625-5.977,1.309-9.023,2.051s-6.211,1.68-9.492,2.812
		c-0.079,0-0.138,0.01-0.176,0.029c-0.039,0.02-0.079,0.029-0.117,0.029h-0.41c-0.196,0-0.352-0.068-0.469-0.205
		s-0.196-0.264-0.234-0.381c-0.431-1.68-0.918-3.77-1.465-6.27c-0.548-2.5-1.134-5.273-1.758-8.32
		c-0.625-3.047-1.289-6.309-1.992-9.785s-1.427-7.051-2.168-10.723l-7.441,26.191c-0.196,0.703-0.401,1.279-0.615,1.729
		c-0.215,0.449-0.46,0.801-0.732,1.055c-0.273,0.254-0.566,0.439-0.879,0.557c-0.313,0.117-0.665,0.215-1.055,0.293
		c-2.969,0.586-5.977,1.26-9.023,2.021s-6.211,1.709-9.492,2.842c-0.079,0-0.138,0.01-0.176,0.029
		c-0.039,0.02-0.079,0.029-0.117,0.029h-0.41c-0.196,0-0.361-0.068-0.498-0.205c-0.138-0.137-0.205-0.264-0.205-0.381
		c-0.548-1.719-1.172-3.896-1.875-6.533s-1.456-5.586-2.256-8.848c-0.801-3.262-1.632-6.748-2.49-10.459
		c-0.859-3.711-1.738-7.48-2.637-11.309c-0.899-3.828-1.787-7.627-2.666-11.396c-0.879-3.769-1.729-7.354-2.549-10.752
		c-0.273-0.625-0.431-1.143-0.469-1.553c-0.039-0.41-0.059-0.751-0.059-1.025c0-0.546,0.312-0.898,0.938-1.055
		c3.047-0.664,6.211-1.357,9.492-2.08c3.281-0.722,6.387-1.65,9.316-2.783c0.117-0.039,0.293-0.059,0.527-0.059
		c0.507,0,0.781,0.196,0.82,0.586l6.562,40.547L993.371,124.854z"/>
	<path fill="#FFFFFF" d="M1060.051,134.932c0.469-5.351,0.85-10.644,1.143-15.879c0.293-5.234,0.615-10.605,0.967-16.113
		c0.078-1.289,0.205-2.177,0.381-2.666c0.176-0.488,0.615-0.81,1.318-0.967c3.633-0.664,7.274-1.337,10.928-2.021
		c3.652-0.683,7.314-1.591,10.986-2.725c0.117-0.039,0.293-0.059,0.527-0.059c0.43,0,0.645,0.196,0.645,0.586l-7.617,83.672v0.996
		c0,0.352-0.138,0.635-0.41,0.85c-0.273,0.215-0.918,0.459-1.934,0.732l-15.352,5.625c-0.431,0.195-0.996,0.4-1.699,0.615
		s-1.387,0.322-2.051,0.322c-0.548,0-1.025-0.137-1.436-0.41s-0.615-0.742-0.615-1.406v-0.352c0.312-3.945,0.615-7.803,0.908-11.572
		s0.605-7.666,0.938-11.689c0.331-4.023,0.693-8.281,1.084-12.773C1059.151,145.205,1059.582,140.284,1060.051,134.932z"/>
</g>
</svg>
