<?xml version="1.0" encoding="utf-8"?>
<!-- Generator: Adobe Illustrator 15.0.0, SVG Export Plug-In . SVG Version: 6.00 Build 0)  -->
<!DOCTYPE svg PUBLIC "-//W3C//DTD SVG 1.1//EN" "http://www.w3.org/Graphics/SVG/1.1/DTD/svg11.dtd">
<svg version="1.1" id="svg1936" xmlns:svg="http://www.w3.org/2000/svg"
	 xmlns="http://www.w3.org/2000/svg" xmlns:xlink="http://www.w3.org/1999/xlink" x="0px" y="0px" width="602.281px"
	 height="185.25px" viewBox="0 0 602.281 185.25" enable-background="new 0 0 602.281 185.25" xml:space="preserve">
<g>
	<path id="path8" fill="#FF9900" d="M373.642,142.94c-35,25.797-85.729,39.561-129.406,39.561
		c-61.243,0-116.376-22.65-158.088-60.324c-3.277-2.963-0.341-7,3.592-4.693c45.015,26.191,100.673,41.947,158.167,41.947
		c38.774,0,81.428-8.021,120.65-24.67C374.481,132.245,379.436,138.639,373.642,142.94"/>
	<path id="path10" fill="#FF9900" d="M388.192,126.293c-4.457-5.717-29.573-2.701-40.847-1.363c-3.434,0.418-3.959-2.57-0.864-4.721
		c20.003-14.078,52.827-10.016,56.653-5.295c3.828,4.744-0.996,37.646-19.793,53.352c-2.883,2.412-5.637,1.127-4.352-2.072
		C383.21,155.655,392.675,132.034,388.192,126.293"/>
	<path id="path12" fill="#FFFFFF" d="M348.132,20.821V7.136c0-2.071,1.574-3.46,3.461-3.46h61.27c1.967,0,3.539,1.415,3.539,3.46
		v11.719c-0.025,1.967-1.68,4.536-4.615,8.6l-31.748,45.329c11.799-0.289,24.25,1.468,34.947,7.498
		c2.412,1.363,3.066,3.355,3.252,5.321v14.604c0,1.992-2.203,4.324-4.512,3.119c-18.85-9.886-43.887-10.958-64.729,0.105
		c-2.123,1.152-4.352-1.154-4.352-3.146v-13.87c0-2.229,0.025-6.03,2.255-9.412l36.782-52.748h-32.012
		C349.707,24.256,348.132,22.866,348.132,20.821"/>
	<path id="path14" fill="#FFFFFF" d="M124.634,106.209h-18.64c-1.783-0.131-3.198-1.469-3.33-3.172V7.372
		c0-1.914,1.6-3.435,3.592-3.435h17.382c1.809,0.078,3.251,1.468,3.382,3.198v12.506h0.341C131.897,7.555,140.417,1.918,151.9,1.918
		c11.667,0,18.955,5.637,24.198,17.723c4.509-12.086,14.76-17.723,25.745-17.723c7.812,0,16.359,3.225,21.576,10.46
		c5.899,8.049,4.693,19.741,4.693,29.992l-0.026,60.378c0,1.914-1.599,3.461-3.591,3.461h-18.614
		c-1.861-0.131-3.355-1.625-3.355-3.461V52.045c0-4.037,0.367-14.104-0.524-17.932c-1.39-6.424-5.558-8.232-10.958-8.232
		c-4.51,0-9.229,3.015-11.143,7.839c-1.914,4.824-1.73,12.898-1.73,18.325v50.706c0,1.912-1.599,3.459-3.592,3.459h-18.614
		c-1.888-0.131-3.356-1.625-3.356-3.459l-0.026-50.706c0-10.67,1.757-26.374-11.483-26.374c-13.397,0-12.873,15.311-12.873,26.374
		v50.706C128.226,104.663,126.627,106.209,124.634,106.209"/>
	<path id="path16" fill="#FFFFFF" d="M469.15,1.919c27.658,0,42.627,23.752,42.627,53.954c0,29.18-16.543,52.331-42.627,52.331
		c-27.16,0-41.947-23.755-41.947-53.354C427.203,25.068,442.173,1.919,469.15,1.919 M469.308,21.45
		c-13.738,0-14.604,18.719-14.604,30.386c0,11.692-0.184,36.65,14.445,36.65c14.445,0,15.127-20.134,15.127-32.403
		c0-8.075-0.342-17.723-2.779-25.378C479.402,24.046,475.232,21.45,469.308,21.45"/>
	<path id="path18" fill="#FFFFFF" d="M547.642,106.209h-18.561c-1.861-0.131-3.357-1.625-3.357-3.459l-0.023-95.692
		c0.158-1.757,1.705-3.12,3.592-3.12h17.277c1.625,0.078,2.963,1.18,3.328,2.674V21.24h0.342
		c5.217-13.082,12.529-19.321,25.402-19.321c8.363,0,16.518,3.015,21.762,11.273c4.877,7.655,4.877,20.527,4.877,29.782v60.22
		c-0.211,1.68-1.76,3.016-3.594,3.016h-18.691c-1.703-0.131-3.119-1.389-3.303-3.016V51.232c0-10.46,1.205-25.771-11.666-25.771
		c-4.537,0-8.705,3.041-10.775,7.655c-2.623,5.846-2.963,11.666-2.963,18.115v51.518
		C551.259,104.663,549.634,106.209,547.642,106.209"/>
	<path fill="#FFFFFF" d="M332.483,88.669c-3.407-4.718-7.026-8.546-7.026-17.276V42.345c0-12.295,0.865-23.595-8.205-32.063
		c-7.158-6.869-19.008-9.281-28.079-9.281c-17.723,0-37.543,6.606-41.685,28.524c-0.446,2.333,1.258,3.565,2.779,3.906l18.063,1.939
		c1.704-0.078,2.936-1.729,3.251-3.408c1.547-7.549,7.865-11.194,14.97-11.194c3.853,0,8.205,1.416,10.46,4.851
		c2.621,3.827,2.281,9.07,2.281,13.501v2.411c-10.803,1.233-24.933,2.019-35.053,6.476c-11.693,5.034-19.873,15.337-19.873,30.464
		c0,19.375,12.191,29.049,27.895,29.049c13.239,0,20.501-3.119,30.726-13.556c3.383,4.905,4.51,7.29,10.696,12.429
		c1.389,0.734,3.172,0.656,4.403-0.445l0.029,0.053c3.723-3.305,10.486-9.203,14.287-12.376
		C333.925,92.365,333.664,90.348,332.483,88.669z M295.804,80.282c-2.962,5.243-7.682,8.468-12.898,8.468
		c-7.157,0-11.352-5.453-11.352-13.501c0-15.887,14.236-18.771,27.737-18.771v4.037C299.291,67.776,299.475,73.832,295.804,80.282z"
		/>
	<path fill="#FFFFFF" d="M88.126,88.117C84.719,83.398,81.1,79.57,81.1,70.84V41.792c0-12.295,0.865-23.596-8.205-32.063
		c-7.158-6.868-19.008-9.28-28.078-9.28c-17.723,0-37.543,6.605-41.686,28.523c-0.445,2.333,1.258,3.564,2.779,3.906l18.062,1.939
		c1.705-0.078,2.937-1.729,3.252-3.408c1.547-7.549,7.864-11.194,14.969-11.194c3.854,0,8.205,1.416,10.461,4.851
		c2.621,3.827,2.281,9.07,2.281,13.502v2.41c-10.803,1.232-24.933,2.02-35.053,6.477C8.19,52.488,0.01,62.791,0.01,77.917
		c0,19.376,12.191,29.05,27.895,29.05c13.24,0,20.502-3.119,30.727-13.556c3.383,4.905,4.51,7.29,10.696,12.429
		c1.389,0.734,3.172,0.656,4.403-0.445l0.029,0.053c3.723-3.305,10.486-9.203,14.287-12.376
		C89.569,91.812,89.307,89.795,88.126,88.117z M51.448,79.729c-2.963,5.243-7.682,8.468-12.898,8.468
		c-7.156,0-11.352-5.453-11.352-13.502c0-15.887,14.236-18.771,27.736-18.771v4.036C54.934,67.223,55.119,73.279,51.448,79.729z"/>
</g>
</svg>
