<?xml version="1.0" encoding="utf-8"?>
<!-- Generator: Adobe Illustrator 15.0.0, SVG Export Plug-In . SVG Version: 6.00 Build 0)  -->
<!DOCTYPE svg PUBLIC "-//W3C//DTD SVG 1.1//EN" "http://www.w3.org/Graphics/SVG/1.1/DTD/svg11.dtd">
<svg version="1.1" id="Layer_1" xmlns="http://www.w3.org/2000/svg" xmlns:xlink="http://www.w3.org/1999/xlink" x="0px" y="0px"
	 width="720px" height="720px" viewBox="0 0 720 720" enable-background="new 0 0 720 720" xml:space="preserve">
<g>
	<path fill="#C6DAE7" d="M251.108,364.224l-5.225,29.17c-0.284,1.606,0.232,3.252,1.403,4.399c1.169,1.145,2.823,1.631,4.432,1.315
		l29.057-5.831c0.981-0.195,1.866-0.678,2.565-1.386l11.759-12l9.917-71.918l-52.564,53.667
		C251.745,362.346,251.28,363.25,251.108,364.224z"/>
	<path fill="#A6BBC8" d="M394.95,277.343H327.04l-21.125,153.205c-0.31,2.247,0.386,4.519,1.911,6.21l47.436,52.776
		c1.465,1.621,3.547,2.548,5.734,2.548c2.184,0,4.27-0.931,5.734-2.548l47.442-52.776c1.524-1.688,2.213-3.963,1.903-6.21
		L394.95,277.343z"/>
	<path fill="#A6BBC8" d="M325.835,259.713l0.862,3.571h68.596l0.86-3.571l2.911-11.959c1.155-4.786,0.051-9.839-2.987-13.707
		c-3.041-3.874-7.698-6.129-12.623-6.129h-44.919c-4.927,0-9.585,2.255-12.623,6.129c-3.039,3.867-4.143,8.92-2.988,13.707
		L325.835,259.713z"/>
</g>
</svg>
