<?xml version="1.0" encoding="utf-8"?>
<!-- Generator: Adobe Illustrator 15.0.0, SVG Export Plug-In . SVG Version: 6.00 Build 0)  -->
<!DOCTYPE svg PUBLIC "-//W3C//DTD SVG 1.1//EN" "http://www.w3.org/Graphics/SVG/1.1/DTD/svg11.dtd">
<svg version="1.1" id="Layer_1" xmlns="http://www.w3.org/2000/svg" xmlns:xlink="http://www.w3.org/1999/xlink" x="0px" y="0px"
	 width="267px" height="88px" viewBox="0 0 267 88" enable-background="new 0 0 267 88" xml:space="preserve">
<path fill="#FFFFFF" d="M100.244,56.783c0,8.211,1.966,10.523,7.517,10.523v1.967H83.938v-1.967c4.626,0,7.517-1.504,7.517-10.293
	V15.497c0-8.096-1.966-10.524-7.517-10.524V3.006h24.17c18.273,0,25.674,9.715,25.674,18.851c0,10.987-8.327,17.116-23.361,17.116
	c-2.891,0-5.32-0.116-10.177-0.694V56.783 M100.244,35.272c3.007,1.041,4.742,1.157,8.211,1.157c9.83,0,16.076-5.32,16.076-14.341
	c0-7.054-3.933-16.537-16.076-16.537h-8.211V35.272z"/>
<path fill="#FFFFFF" d="M135.285,44.293c-0.231,18.389,10.756,23.014,16.307,23.014c5.668,0,8.559-1.965,14.457-8.559v3.008
	c-4.973,6.361-9.715,8.789-16.885,8.789c-12.838,0-22.089-8.904-22.089-21.279c0-12.374,9.02-22.089,20.585-22.089
	c9.483,0,18.272,7.633,17.695,17.116H135.285 M157.605,42.327c0.348-9.021-5.781-12.722-10.986-12.722
	c-6.822,0-10.871,5.089-11.334,12.722H157.605z"/>
<path fill="#FFFFFF" d="M209.761,60.367c0,5.319,1.159,6.939,6.94,6.939v1.967h-21.858v-1.967c5.551,0,7.056-1.271,7.056-5.088
	V40.823c0-6.592-4.742-9.367-9.138-9.367c-4.046,0-7.632,2.544-11.679,7.98v20.007c0,6.243,0.808,7.863,6.939,7.863v1.967h-21.628
	v-1.967c5.437,0,6.824-0.463,6.824-7.863V36.429c0-4.973-1.272-6.014-6.824-6.014v-1.966l12.722-1.272h1.967v8.211
	c4.857-5.551,9.599-8.211,14.803-8.211c6.824,0,13.876,4.857,13.876,14.687V60.367"/>
<path fill="#FFFFFF" d="M259.838,60.367c0,5.319,1.156,6.939,6.939,6.939v1.967H244.92v-1.967c5.55,0,7.052-1.271,7.052-5.088
	V40.823c0-6.592-4.739-9.367-9.134-9.367c-4.049,0-7.633,2.544-11.682,7.98v20.007c0,6.243,0.811,7.863,6.938,7.863v1.967h-21.627
	v-1.967c5.437,0,6.825-0.463,6.825-7.863V36.429c0-4.973-1.271-6.014-6.825-6.014v-1.966l12.724-1.272h1.965v8.211
	c4.856-5.551,9.6-8.211,14.803-8.211c6.824,0,13.879,4.857,13.879,14.687V60.367"/>
<path fill="#FFFFFF" d="M86.288,81.033c0,1.836,0.498,3.24,2.453,3.24c1.798,0,2.743-1.207,2.743-3.307V77.32
	c0-0.275-0.053-0.498-0.08-0.709c-0.065-0.473-0.511-0.656-1.127-0.721v-0.342h3.096v0.342c-0.63,0.064-1.063,0.248-1.129,0.721
	c-0.026,0.211-0.078,0.434-0.078,0.709v3.699c0,2.82-1.798,3.871-3.49,3.871c-2.795,0-3.661-1.418-3.661-3.791v-3.91
	c0-1.221,0.053-1.154-1.128-1.299v-0.342h3.529v0.342c-1.181,0.145-1.128,0.078-1.128,1.299V81.033"/>
<path fill="#FFFFFF" d="M100.801,84.732c-1.61-1.902-3.28-3.896-4.93-5.84v4.475c0,0.211,0.04,0.383,0.06,0.545
	c0.051,0.365,0.395,0.508,1.063,0.557v0.264h-2.48v-0.264c0.486-0.049,0.82-0.191,0.87-0.557c0.021-0.162,0.061-0.334,0.061-0.545
	v-4.77c-0.283-0.363-0.597-0.688-1.174-0.688v-0.264h1.842c1.509,1.832,3.078,3.695,4.586,5.527h0.02v-4.16
	c0-0.213-0.04-0.385-0.06-0.547c-0.051-0.366-0.395-0.506-1.063-0.557v-0.264h2.48v0.264c-0.476,0.051-0.82,0.19-0.87,0.557
	c-0.021,0.162-0.061,0.334-0.061,0.547v5.719H100.801"/>
<path fill="#FFFFFF" d="M105.994,83.467c0,0.941-0.041,0.891,0.87,1.002v0.264h-2.723v-0.264c0.911-0.111,0.871-0.061,0.871-1.002
	v-4.555c0-0.941,0.04-0.891-0.871-1.002v-0.264h2.723v0.264c-0.911,0.111-0.87,0.061-0.87,1.002V83.467"/>
<path fill="#FFFFFF" d="M111.177,77.91c-0.557,0-0.962,0.162-0.628,1.133c0.395,1.195,0.982,2.936,1.509,4.475
	c0.647-1.549,1.265-3.107,1.893-4.656c0.253-0.637-0.01-0.951-0.699-0.951v-0.264h2.187v0.264c-0.294,0-0.628,0.102-0.841,0.607
	c-0.85,2.074-1.71,4.141-2.561,6.215h-0.516c-0.617-1.75-1.306-3.705-1.923-5.426c-0.375-1.082-0.689-1.396-1.174-1.396v-0.264
	h2.753V77.91"/>
<path fill="#FFFFFF" d="M116.998,84.469c0.911-0.111,0.87-0.061,0.87-1.002v-4.555c0-0.941,0.041-0.891-0.87-1.002v-0.264h4.525
	v1.631h-0.263c-0.102-0.75-0.304-1.307-1.033-1.307h-1.377v2.895h0.851c0.638,0,0.911-0.252,0.931-0.881h0.263v2.156h-0.263
	c-0.02-0.596-0.253-0.951-0.931-0.951h-0.851v2.289c0,0.859,0.395,0.93,1.306,0.93c1.468,0,1.397-0.414,1.863-1.498h0.263
	l-0.304,1.822h-4.98V84.469"/>
<path fill="#FFFFFF" d="M123.831,77.646h2.946c1.022,0,2.045,0.537,2.045,1.721c0,1.043-0.638,1.762-1.417,2.066l0.992,1.508
	c0.506,0.738,1.073,1.447,1.426,1.659v0.132h-1.042c-0.597,0-0.921-1.104-2.146-3.139h-0.952v1.873c0,0.941-0.04,0.891,0.871,1.002
	v0.264h-2.723v-0.264c0.911-0.111,0.87-0.061,0.87-1.002v-4.555c0-0.941,0.041-0.891-0.87-1.002V77.646 M125.683,81.272h0.841
	c0.881,0,1.286-0.669,1.286-1.813c0-1.104-0.608-1.488-1.347-1.488h-0.78V81.272z"/>
<path fill="#FFFFFF" d="M134.836,79.154c-0.082-0.707-0.467-1.275-1.276-1.275c-0.587,0-1.114,0.305-1.114,1.053
	c0,0.709,0.709,1.135,1.722,1.895c1.072,0.799,1.416,1.314,1.416,2.156c0,1.203-1.235,1.871-2.45,1.871
	c-0.647,0-1.204-0.121-1.73-0.322c-0.041-0.021-0.072-0.062-0.072-0.143v-1.457h0.264c0.111,1.123,0.85,1.568,1.629,1.568
	c0.72,0,1.306-0.547,1.306-1.285c0-0.658-0.354-1.195-1.873-2.197c-0.546-0.365-1.224-0.76-1.224-1.863
	c0-0.91,1.012-1.629,2.176-1.629c0.435,0,1.013,0.051,1.417,0.191c0.061,0.021,0.069,0.061,0.069,0.111v1.326H134.836"/>
<path fill="#FFFFFF" d="M139.26,83.467c0,0.941-0.042,0.891,0.869,1.002v0.264h-2.723v-0.264c0.912-0.111,0.871-0.061,0.871-1.002
	v-4.555c0-0.941,0.041-0.891-0.871-1.002v-0.264h2.723v0.264c-0.911,0.111-0.869,0.061-0.869,1.002V83.467"/>
<path fill="#FFFFFF" d="M145.131,83.467c0,0.941-0.041,0.891,0.871,1.002v0.264h-2.725v-0.264c0.912-0.111,0.871-0.061,0.871-1.002
	v-5.496h-0.91c-0.881,0-1.084,0.557-1.418,1.225h-0.254l0.273-1.549h5.6l0.273,1.549h-0.254c-0.334-0.668-0.537-1.225-1.418-1.225
	h-0.91V83.467"/>
<path fill="#FFFFFF" d="M150.658,84.469c0.91-0.111,0.871-0.061,0.871-1.002v-1.559l-1.562-3.088
	c-0.333-0.658-0.617-0.91-1.082-0.91v-0.264h2.581v0.264c-0.768,0-0.698,0.385-0.445,0.91l1.227,2.541l1.396-2.541
	c0.345-0.617,0.021-0.91-0.577-0.91v-0.264h2.086v0.264c-0.283,0-0.558,0.131-0.83,0.617l-1.689,3.066
	c-0.102,0.203-0.123,0.486-0.123,0.74v1.133c0,0.941-0.04,0.891,0.871,1.002v0.264h-2.723V84.469"/>
<path fill="#FFFFFF" d="M159.761,82.307c0-1.719,1.483-4.291,3.674-4.291c1.746,0,2.125,1.182,2.125,2.361
	c0,1.443-1.153,4.514-3.659,4.514C160.22,84.891,159.761,83.539,159.761,82.307 M164.353,79.748c0-1.365-0.825-1.418-1.034-1.418
	c-1.418,0-2.351,2.545-2.351,4.252c0,0.682,0.12,1.914,1.09,1.914C163.554,84.496,164.353,82.029,164.353,79.748z"/>
<path fill="#FFFFFF" d="M172.16,78.449l-0.315,0.275h-1.718c-0.643,3.121-1.694,7.281-2.44,9.275h-0.592l1.877-9.275h-1.246
	l0.117-0.551h1.235c0.695-2.795,3.004-3.084,3.555-3.084c0.3,0,0.932,0.053,1.128,0.236l-0.158,0.865l-0.327,0.158
	c-0.184-0.354-0.604-0.762-1.154-0.762c-0.787,0-1.377,0.539-1.694,1.955l-0.142,0.631h1.928L172.16,78.449"/>
<path fill="#FFFFFF" d="M180.164,83.094c0,1.22-0.053,1.154,1.127,1.299v0.34h-3.53v-0.34c1.183-0.145,1.129-0.079,1.129-1.299
	v-5.904c0-1.221,0.054-1.154-1.129-1.299v-0.342h3.438c2.178,0,3.254,0.865,3.254,2.441c0,1.889-1.705,2.912-3.713,2.793v-0.261
	c1.641,0.024,2.399-0.958,2.399-2.401c0-1.471-0.707-2.152-2.177-2.152h-0.799V83.094"/>
<path fill="#FFFFFF" d="M186.261,84.469c0.913-0.111,0.872-0.061,0.872-1.002v-4.555c0-0.941,0.041-0.891-0.872-1.002v-0.264h4.526
	v1.631h-0.264c-0.102-0.75-0.304-1.307-1.031-1.307h-1.377v2.895h0.85c0.638,0,0.912-0.252,0.932-0.881h0.264v2.156h-0.264
	c-0.02-0.596-0.255-0.951-0.932-0.951h-0.85v2.289c0,0.859,0.395,0.93,1.305,0.93c1.468,0,1.398-0.414,1.863-1.498h0.264
	l-0.305,1.822h-4.981V84.469"/>
<path fill="#FFFFFF" d="M199.584,84.732c-1.61-1.902-3.28-3.896-4.93-5.84v4.475c0,0.211,0.041,0.383,0.061,0.545
	c0.05,0.365,0.395,0.508,1.062,0.557v0.264h-2.479v-0.264c0.484-0.049,0.818-0.191,0.869-0.557c0.021-0.162,0.06-0.334,0.06-0.545
	v-4.77c-0.282-0.363-0.595-0.688-1.174-0.688v-0.264h1.843c1.51,1.832,3.077,3.695,4.586,5.527h0.021v-4.16
	c0-0.213-0.041-0.385-0.061-0.547c-0.052-0.366-0.395-0.506-1.064-0.557v-0.264h2.48v0.264c-0.475,0.051-0.82,0.19-0.869,0.557
	c-0.022,0.162-0.063,0.334-0.063,0.547v5.719H199.584"/>
<path fill="#FFFFFF" d="M208.654,84.732c-1.609-1.902-3.279-3.896-4.931-5.84v4.475c0,0.211,0.041,0.383,0.062,0.545
	c0.051,0.365,0.394,0.508,1.062,0.557v0.264h-2.478v-0.264c0.483-0.049,0.817-0.191,0.869-0.557
	c0.021-0.162,0.061-0.334,0.061-0.545v-4.77c-0.284-0.363-0.596-0.688-1.174-0.688v-0.264h1.842
	c1.509,1.832,3.078,3.695,4.585,5.527h0.022v-4.16c0-0.213-0.041-0.385-0.062-0.547c-0.05-0.366-0.394-0.506-1.063-0.557v-0.264
	h2.479v0.264c-0.474,0.051-0.819,0.19-0.869,0.557c-0.021,0.162-0.062,0.334-0.062,0.547v5.719H208.654"/>
<path fill="#FFFFFF" d="M215.244,79.154c-0.08-0.707-0.465-1.275-1.276-1.275c-0.585,0-1.112,0.305-1.112,1.053
	c0,0.709,0.709,1.135,1.721,1.895c1.074,0.799,1.418,1.314,1.418,2.156c0,1.203-1.234,1.871-2.449,1.871
	c-0.648,0-1.205-0.121-1.733-0.322c-0.038-0.021-0.069-0.062-0.069-0.143v-1.457h0.264c0.111,1.123,0.85,1.568,1.629,1.568
	c0.718,0,1.307-0.547,1.307-1.285c0-0.658-0.354-1.195-1.873-2.197c-0.547-0.365-1.226-0.76-1.226-1.863
	c0-0.91,1.013-1.629,2.176-1.629c0.437,0,1.015,0.051,1.418,0.191c0.062,0.021,0.071,0.061,0.071,0.111v1.326H215.244"/>
<path fill="#FFFFFF" d="M219.324,84.469c0.912-0.111,0.871-0.061,0.871-1.002v-1.559l-1.56-3.088
	c-0.334-0.658-0.617-0.91-1.084-0.91v-0.264h2.583v0.264c-0.77,0-0.7,0.385-0.445,0.91l1.225,2.541l1.396-2.541
	c0.345-0.617,0.022-0.91-0.575-0.91v-0.264h2.086v0.264c-0.285,0-0.56,0.131-0.83,0.617l-1.691,3.066
	c-0.102,0.203-0.122,0.486-0.122,0.74v1.133c0,0.941-0.041,0.891,0.87,1.002v0.264h-2.723V84.469"/>
<path fill="#FFFFFF" d="M225.478,84.469c0.912-0.111,0.871-0.061,0.871-1.002v-4.555c0-0.941,0.041-0.891-0.871-1.002v-0.264h2.726
	v0.264c-0.912,0.111-0.871,0.061-0.871,1.002v4.717c0,0.709,0.394,0.779,1.295,0.779c1.468,0,1.408-0.414,1.873-1.498h0.254
	l-0.305,1.822h-4.972V84.469"/>
<path fill="#FFFFFF" d="M234.287,77.91c-0.557,0-0.963,0.162-0.629,1.133c0.396,1.195,0.981,2.936,1.51,4.475
	c0.646-1.549,1.265-3.107,1.892-4.656c0.255-0.637-0.009-0.951-0.698-0.951v-0.264h2.188v0.264c-0.293,0-0.629,0.102-0.84,0.607
	c-0.852,2.074-1.711,4.141-2.562,6.215h-0.516c-0.618-1.75-1.307-3.705-1.924-5.426c-0.375-1.082-0.688-1.396-1.174-1.396v-0.264
	h2.754V77.91"/>
<path fill="#FFFFFF" d="M240.228,82.385l-0.465,1.355c-0.132,0.395,0.062,0.729,0.506,0.729v0.264h-1.842v-0.264
	c0.274,0,0.567-0.172,0.729-0.506c0.436-0.891,1.619-4.201,2.459-6.438h0.567c0.688,2.035,1.722,5.152,2.065,6.053
	c0.222,0.569,0.385,0.891,0.82,0.891v0.264h-2.359v-0.264c0.638,0,0.699-0.334,0.537-0.779l-0.437-1.305H240.228 M242.679,82
	l-1.073-3.291h-0.02L240.381,82H242.679z"/>
<path fill="#FFFFFF" d="M252.863,84.732c-1.609-1.902-3.281-3.896-4.931-5.84v4.475c0,0.211,0.039,0.383,0.062,0.545
	c0.051,0.365,0.394,0.508,1.062,0.557v0.264h-2.479v-0.264c0.485-0.049,0.82-0.191,0.871-0.557c0.02-0.162,0.061-0.334,0.061-0.545
	v-4.77c-0.284-0.363-0.598-0.688-1.174-0.688v-0.264h1.842c1.507,1.832,3.078,3.695,4.585,5.527h0.021v-4.16
	c0-0.213-0.039-0.385-0.062-0.547c-0.05-0.366-0.394-0.506-1.062-0.557v-0.264h2.479v0.264c-0.476,0.051-0.819,0.19-0.871,0.557
	c-0.019,0.162-0.06,0.334-0.06,0.547v5.719H252.863"/>
<path fill="#FFFFFF" d="M257.65,83.467c0,0.941-0.039,0.891,0.871,1.002v0.264h-2.723v-0.264c0.91-0.111,0.871-0.061,0.871-1.002
	v-4.555c0-0.941,0.039-0.891-0.871-1.002v-0.264h2.723v0.264c-0.91,0.111-0.871,0.061-0.871,1.002V83.467"/>
<g>
	<defs>
		<rect id="SVGID_1_" x="0.06" y="0.997" width="266.717" height="87.003"/>
	</defs>
	<clipPath id="SVGID_2_">
		<use xlink:href="#SVGID_1_"  overflow="visible"/>
	</clipPath>
	<path clip-path="url(#SVGID_2_)" fill="#FFFFFF" d="M261.883,82.385l-0.467,1.355c-0.131,0.395,0.06,0.729,0.507,0.729v0.264
		h-1.843v-0.264c0.272,0,0.566-0.172,0.728-0.506c0.437-0.891,1.621-4.201,2.461-6.438h0.567c0.689,2.035,1.72,5.152,2.066,6.053
		c0.223,0.569,0.383,0.891,0.817,0.891v0.264h-2.356v-0.264c0.637,0,0.696-0.334,0.535-0.779l-0.434-1.305H261.883 M264.332,82
		l-1.072-3.291h-0.021L262.035,82H264.332z"/>
	<path clip-path="url(#SVGID_2_)" fill="#FFFFFF" d="M0.008,0.997h76.254c0,0,0,37.461,0,38.122
		c-0.516,31.072-35.337,47.406-39.718,47.256C31.988,86.219-0.096,70.238,0,38.958C0.002,38.394,0.008,0.997,0.008,0.997"/>
</g>
<path fill="#FFFFFF" d="M1.847,3.024h72.624c0,0,0,35.677,0,36.306c-0.492,29.594-33.656,45.148-37.828,45.006
	C32.304,84.188,1.749,68.967,1.84,39.176C1.841,38.641,1.847,3.024,1.847,3.024"/>
<path fill="#991B1E" d="M1.84,25.088C1.945,25.193,1.844,3.03,1.844,3.03h72.571c0,0,0,11.887,0,22.059L1.84,25.088"/>
<path fill="#991B1E" d="M74.668,25.341H1.84L1.798,25.08l-0.202-0.043C1.673,24.475,1.619,8.961,1.592,3.031L1.591,2.778h73.077
	V25.341 M2.075,24.836h72.088V3.283H2.098C2.171,19.311,2.166,23.635,2.075,24.836z"/>
<path fill="#1E2758" d="M5.906,57.381c2.792,5.867,6.243,10.592,11.087,14.611l21.132-21.365l20.34,20.863
	c4.193-3.834,8.278-8.477,11.204-13.977L38.1,27.144L6.051,57.443L5.906,57.381"/>
<path fill="#1E2758" d="M17.01,72.334l-0.178-0.147c-4.69-3.892-8.234-8.562-11.154-14.697L5.39,56.884l0.608,0.263l32.104-30.352
	l0.173,0.167l31.706,30.502l-0.089,0.168c-2.58,4.849-6.367,9.573-11.257,14.045l-0.18,0.164L38.123,50.986L17.01,72.334
	 M6.279,57.575c2.822,5.842,6.231,10.326,10.698,14.075l21.149-21.383l20.349,20.871c4.704-4.331,8.364-8.896,10.882-13.574
	L38.099,27.492L6.279,57.575z"/>
<polyline fill="#1E2758" points="1.84,25.491 1.84,24.986 74.411,24.976 74.411,25.481 1.84,25.491 "/>
<path fill="#FFFFFF" d="M56.232,8.512h1.975c1.447-0.331,1.975-1.17,3.46-1.17c1.068,0,1.571,0.709,2.356,0.709
	c0.662,0,1.681-0.756,2.797-0.756c1.142,0,1.706,0.685,2.455,1.004c0.662,0.284,1.533,0.269,2.453,0.269
	c-0.025,0.662,0,1.055,0,1.61c0,0.568,0.761,0.343,0.761,1.265c0,0.97-0.983,0.78-0.983,1.17l-0.036,3.605
	c0.05,0.449,0.957,0.508,0.957,1.193c0,1.017-1.01,0.665-0.944,1.466c0.048,0.591,0,1.844,0,1.844
	c-1.951,0-14.498,0.114-15.112,0.091c0.037-1.335,0.244-1.256,0.29-1.899c0.037-0.52-1.128-0.84-1.128-1.714
	c0-0.603,0.699-0.568,0.76-1.135v-3.593c-0.037-0.473-1.092-0.709-1.056-1.382c0.044-0.806,0.982-0.703,0.982-1.242
	C56.219,9.611,56.244,8.736,56.232,8.512"/>
<path fill="#1E2758" d="M56.838,21.067c-0.252,0-0.417-0.001-0.477-0.003l-0.25-0.009l0.008-0.25
	c0.023-0.85,0.117-1.164,0.193-1.416c0.046-0.152,0.082-0.272,0.098-0.494c0.007-0.105-0.192-0.278-0.367-0.431
	c-0.34-0.295-0.763-0.663-0.763-1.265c0-0.439,0.277-0.646,0.478-0.798c0.175-0.131,0.267-0.207,0.284-0.364l-0.002-3.566
	c-0.006-0.076-0.205-0.226-0.365-0.347c-0.319-0.24-0.717-0.54-0.689-1.049c0.031-0.576,0.433-0.81,0.698-0.964
	c0.219-0.128,0.283-0.177,0.283-0.264c0-0.081,0.003-0.237,0.006-0.415c0.007-0.338,0.014-0.761,0.007-0.907l-0.015-0.266h2.242
	c0.527-0.126,0.958-0.349,1.374-0.565c0.602-0.311,1.17-0.605,2.086-0.605c0.634,0,1.083,0.225,1.479,0.423
	c0.308,0.154,0.574,0.287,0.877,0.287c0.239,0,0.585-0.139,0.951-0.287c0.547-0.22,1.167-0.47,1.846-0.47
	c0.854,0,1.416,0.354,1.912,0.666c0.218,0.137,0.424,0.267,0.641,0.359c0.584,0.25,1.379,0.246,2.222,0.249l0.395-0.001l-0.01,0.262
	c-0.016,0.434-0.011,0.75-0.005,1.074c0.003,0.168,0.006,0.339,0.006,0.527c0,0.104,0.032,0.134,0.197,0.243
	c0.224,0.147,0.563,0.369,0.563,1.022c0,0.759-0.504,0.977-0.805,1.108c-0.067,0.029-0.167,0.072-0.19,0.097l-0.023,3.572
	c0.007,0.049,0.154,0.145,0.296,0.238c0.279,0.182,0.661,0.432,0.661,0.953c0,0.68-0.398,0.905-0.661,1.053
	c-0.235,0.133-0.303,0.181-0.285,0.392c0.049,0.599,0.002,1.823,0.001,1.874l-0.01,0.243h-0.242c-0.819,0-3.504,0.02-6.39,0.042
	C61.656,21.04,58.12,21.067,56.838,21.067 M56.633,20.562c1.05,0.012,4.964-0.025,8.457-0.052c2.646-0.019,5.122-0.038,6.148-0.041
	c0.012-0.39,0.027-1.157-0.007-1.571c-0.044-0.543,0.294-0.734,0.54-0.873c0.243-0.137,0.404-0.228,0.404-0.614
	c0-0.236-0.164-0.356-0.432-0.531c-0.229-0.15-0.489-0.319-0.524-0.635l0.035-3.634c0-0.315,0.278-0.435,0.482-0.523
	c0.279-0.122,0.5-0.217,0.5-0.645c0-0.38-0.14-0.472-0.334-0.6c-0.18-0.118-0.426-0.279-0.426-0.665
	c0-0.185-0.003-0.353-0.006-0.518c-0.004-0.264-0.008-0.522-0.002-0.84c-0.002,0-0.003,0-0.005,0c-0.847,0-1.643-0.013-2.288-0.289
	c-0.253-0.108-0.486-0.254-0.711-0.396c-0.481-0.302-0.935-0.588-1.644-0.588c-0.582,0-1.153,0.23-1.657,0.433
	c-0.431,0.174-0.803,0.324-1.14,0.324c-0.422,0-0.768-0.174-1.103-0.341c-0.363-0.181-0.738-0.369-1.253-0.369
	c-0.793,0-1.285,0.254-1.854,0.549c-0.424,0.219-0.904,0.467-1.55,0.615l-1.776,0.005c-0.001,0.198-0.005,0.456-0.009,0.678
	c-0.004,0.175-0.006,0.327-0.006,0.406c0,0.39-0.296,0.562-0.534,0.7c-0.268,0.156-0.433,0.266-0.449,0.555
	c-0.012,0.224,0.186,0.391,0.49,0.619c0.266,0.2,0.54,0.407,0.565,0.731l0.001,3.612c-0.043,0.409-0.298,0.601-0.484,0.741
	c-0.186,0.14-0.276,0.215-0.276,0.394c0,0.372,0.3,0.633,0.589,0.885c0.278,0.241,0.564,0.491,0.539,0.847
	c-0.02,0.277-0.07,0.443-0.117,0.603C56.733,19.741,56.663,19.974,56.633,20.562z"/>
<path fill="#1E2758" d="M63.663,18.757c-2.84,0-5.593-0.005-5.824-0.006h-0.255l0.003-0.255c0.024-1.868,0-9.844,0-9.924
	l0.504-0.002c0,0.077,0.023,7.431,0.003,9.677c3.773,0.009,10.364,0.012,11.713-0.015c-0.001-2.431-0.012-9.72-0.012-9.72
	L70.3,8.511c0,0,0.012,7.825,0.012,9.964v0.23l-0.23,0.021C69.814,18.751,66.69,18.757,63.663,18.757"/>
<rect x="63.709" y="8.075" fill="#1E2758" width="0.505" height="10.448"/>
<path fill="#1E2758" d="M64.146,17.234c0.515,0.024,1.461,0.371,2.381,0.65c1.189,0.361,2.451,0.108,3.385,0.296
	c0.295,0.059-5.766,0.106-5.766,0.106C64.17,17.116,64.146,17.234,64.146,17.234"/>
<path fill="#1E2758" d="M63.889,18.54l0.005-0.259c0.008-0.415,0.01-0.66,0.01-0.805l-0.064-0.003l0.104-0.515l0.231,0.022
	c0.023,0.003,0.042,0.005,0.06,0.008c0.42,0.037,1.014,0.227,1.696,0.445c0.22,0.07,0.445,0.142,0.669,0.21
	c0.656,0.199,1.338,0.201,1.998,0.203c0.488,0.002,0.949,0.003,1.364,0.086l0.223,0.045l-0.011,0.231
	c-0.01,0.103-0.016,0.169-0.31,0.213l-0.001,0.006c-0.006-0.001-0.012-0.002-0.018-0.004c-0.527,0.075-1.928,0.086-5.697,0.115
	L63.889,18.54 M64.409,17.522c0.001,0.133-0.002,0.3-0.005,0.51c0.528-0.005,1.111-0.01,1.694-0.016
	c-0.108-0.035-0.215-0.069-0.321-0.103C65.263,17.749,64.77,17.592,64.409,17.522z"/>
<path fill="#1E2758" d="M63.274,18.783c0-0.262,0.305-0.473,0.681-0.473c0.377,0,0.681,0.211,0.681,0.473
	c0,0.26-0.304,0.472-0.681,0.472C63.579,19.255,63.274,19.043,63.274,18.783"/>
<path fill="#1E2758" d="M63.955,19.507c-0.523,0-0.933-0.318-0.933-0.724c0-0.407,0.41-0.726,0.933-0.726
	c0.524,0,0.934,0.319,0.934,0.726C64.889,19.189,64.479,19.507,63.955,19.507 M63.955,18.562c-0.258,0-0.428,0.133-0.428,0.221
	c0,0.087,0.17,0.219,0.428,0.219c0.262,0,0.429-0.13,0.429-0.219C64.384,18.693,64.217,18.562,63.955,18.562z"/>
<path fill="#1E2758" d="M63.621,17.234c-0.515,0.024-1.461,0.371-2.38,0.65c-1.19,0.361-2.452,0.108-3.386,0.296
	c-0.294,0.059,5.766,0.106,5.766,0.106C63.597,17.116,63.621,17.234,63.621,17.234"/>
<path fill="#1E2758" d="M63.879,18.54l-0.26-0.002c-3.768-0.029-5.169-0.04-5.697-0.115c-0.006,0.002-0.011,0.003-0.017,0.004
	l-0.002-0.006c-0.293-0.044-0.299-0.11-0.31-0.213l-0.021-0.227l0.233-0.049c0.415-0.083,0.876-0.084,1.365-0.086
	c0.659-0.002,1.341-0.004,1.998-0.203c0.223-0.068,0.448-0.14,0.669-0.21c0.682-0.218,1.277-0.408,1.697-0.445
	c0.017-0.003,0.036-0.005,0.057-0.008l0.229-0.025l0.108,0.518l-0.066,0.003c0,0.145,0.003,0.39,0.011,0.805L63.879,18.54
	 M61.67,18.016c0.582,0.006,1.165,0.011,1.694,0.016c-0.004-0.21-0.007-0.377-0.006-0.51c-0.361,0.07-0.853,0.227-1.368,0.391
	C61.884,17.947,61.777,17.981,61.67,18.016z"/>
<path fill="#FFFFFF" d="M23.406,21.772c0.196,0.768,0.773,1.276,1.718,1.276c1.754,0,3.447-1.3,4.465-2.032
	c0.798-0.568,1.62-1.17,1.62-2.412l-0.147,0.473c0,0,1.375-1.371,4.76-0.284c0.941,0.303,4.97,2.565,5.841,2.932
	c0.749,0.319,3.372,2.201,7.472,1.475c0,0,6.26-0.861,4.862-7.307c-1-4.608-0.69-4.935-0.309-6.413
	c-0.147-0.07-3.828-0.897-3.73,4.208c-1.596,0.166-3.633,1.371-2.307,4.539c0.54-0.805,1.263-1.655,2.257-1.655
	c0.626,0,1.285,0.899,1.326,1.56c0.098,1.607-1.522,2.316-3.534,1.985c-1.02-0.167-1.96-1.298-3.366-2.315
	c0.246-0.118,0.47-0.947,0.47-1.278c0-0.815-0.699-1.193-1.177-1.465c0.098-0.284,0.293-0.662,0.293-0.946
	c0-0.65-0.92-0.602-1.275-0.85c0.147-0.201,0.147-0.083,0.147-0.379c0-0.946,0.147-1.466-1.767-1.418
	c0.16-0.934-0.037-1.536-0.687-1.797L38.915,9.48c-0.884-0.165-0.003-0.459-0.818-1.245c-0.727-0.701-1.925,0-1.925,0
	c0-0.65-0.448-1.166-1.233-1.166c-0.417,0-0.932,0.036-1.226,0.19l-0.589,0.472c-0.737,0-0.921-0.662-1.767-0.662
	c-0.847,0-1.19,0.662-1.522,1.088C29.258,7.885,29.185,7.4,28.412,7.4c-0.454,0-0.589,0.485-0.785,0.709
	c-0.503,0.556-0.468,1.132-1.253,1.415l-0.292-0.513c-0.009-0.032-0.018-0.065-0.026-0.098c-1.154,0.556-3.756,6.488-3.756,7.705
	c0,1.159,1.008,0.651,1.008,1.892c0,0.733-1.08,1.265-1.08,1.891c0,0.792,0.92,1.181,1.717,1.181L23.406,21.772"/>
<path fill="#1E2758" d="M47.297,23.617c-2.601,0-4.442-0.982-5.321-1.451c-0.173-0.092-0.31-0.166-0.412-0.21
	c-0.365-0.153-1.237-0.614-2.245-1.147c-1.354-0.714-3.039-1.604-3.574-1.775c-2.53-0.813-3.883-0.196-4.333,0.094
	c-0.205,1.047-1.011,1.62-1.676,2.093l-0.175,0.126c-1.075,0.778-2.699,1.953-4.437,1.953c-1.009,0-1.724-0.534-1.962-1.466
	l-0.032-0.123c-0.64-0.202-1.154-0.648-1.154-1.31c0-0.397,0.291-0.723,0.572-1.038c0.25-0.28,0.508-0.568,0.508-0.853
	c0-0.498-0.171-0.615-0.407-0.778c-0.268-0.183-0.601-0.412-0.601-1.114c0-1.31,2.649-7.33,3.899-7.932l0.282-0.136l0.095,0.391
	l0.154,0.262c0.27-0.148,0.384-0.355,0.531-0.623c0.108-0.196,0.23-0.418,0.431-0.64c0.041-0.047,0.08-0.113,0.122-0.182
	c0.15-0.242,0.375-0.61,0.85-0.61c0.581,0,0.853,0.247,1.094,0.464c0.084,0.076,0.165,0.15,0.26,0.215
	c0.002-0.003,0.004-0.006,0.006-0.008c0.308-0.423,0.728-1.002,1.585-1.002c0.515,0,0.821,0.208,1.092,0.392
	c0.199,0.135,0.36,0.245,0.591,0.267l0.515-0.414c0.318-0.171,0.77-0.245,1.384-0.245c0.736,0,1.285,0.413,1.441,1.042
	c0.46-0.182,1.29-0.385,1.892,0.195c0.484,0.466,0.469,0.825,0.461,1.04c-0.002,0.029-0.003,0.066-0.001,0.085
	c0.004-0.005,0.062,0.023,0.229,0.053l1.41,0.187c0.727,0.284,1.028,0.882,0.943,1.792c0.755,0.006,1.197,0.121,1.452,0.371
	c0.288,0.285,0.284,0.67,0.279,1.116l-0.001,0.186c0,0.121,0,0.202-0.019,0.271c0.051,0.015,0.106,0.031,0.159,0.046
	c0.393,0.112,0.988,0.281,0.988,0.912c0,0.256-0.115,0.54-0.216,0.791c-0.006,0.015-0.012,0.029-0.017,0.043
	c0.513,0.303,1.117,0.74,1.117,1.577c0,0.235-0.12,0.862-0.351,1.238c0.383,0.29,0.733,0.585,1.048,0.85
	c0.736,0.62,1.372,1.155,1.988,1.257c1.175,0.191,2.214,0.007,2.774-0.497c0.341-0.308,0.498-0.72,0.467-1.225
	c-0.033-0.534-0.604-1.323-1.074-1.323c-0.897,0-1.566,0.824-2.048,1.543l-0.261,0.389l-0.181-0.432
	c-0.574-1.372-0.598-2.518-0.071-3.406c0.448-0.754,1.318-1.287,2.357-1.451c0.004-1.896,0.532-3.196,1.574-3.864
	c1.098-0.704,2.386-0.414,2.519-0.35l0.187,0.09l-0.152,0.576c-0.314,1.151-0.486,1.785,0.411,5.92
	c0.438,2.02,0.189,3.72-0.742,5.05c-1.502,2.149-4.217,2.545-4.331,2.561C48.508,23.567,47.883,23.617,47.297,23.617 M33.406,18.121
	c0.678,0,1.504,0.115,2.494,0.432c0.577,0.186,2.211,1.049,3.654,1.811c0.957,0.505,1.861,0.983,2.207,1.128
	c0.112,0.048,0.264,0.128,0.453,0.229c1.118,0.596,3.444,1.838,6.877,1.231c0.036-0.005,2.626-0.387,3.999-2.355
	c0.845-1.211,1.067-2.775,0.66-4.651c-0.923-4.256-0.739-4.932-0.405-6.159l0.031-0.116c-0.378-0.052-1.215-0.091-1.932,0.429
	c-0.853,0.619-1.268,1.824-1.234,3.583l0.004,0.232l-0.23,0.024c-0.98,0.101-1.804,0.564-2.203,1.236
	c-0.388,0.653-0.408,1.499-0.063,2.519c0.529-0.703,1.233-1.374,2.19-1.374c0.777,0,1.529,1.004,1.577,1.796
	c0.04,0.656-0.179,1.22-0.632,1.63c-0.683,0.616-1.846,0.843-3.194,0.62c-0.752-0.124-1.438-0.701-2.231-1.369
	c-0.386-0.325-0.786-0.662-1.242-0.991l-0.343-0.248l0.382-0.183c0.12-0.091,0.327-0.742,0.327-1.051
	c0-0.649-0.563-0.969-1.016-1.227l-0.182-0.103l0.034-0.218c0.028-0.08,0.064-0.169,0.1-0.26c0.085-0.209,0.18-0.445,0.18-0.603
	c0-0.212-0.163-0.296-0.622-0.427c-0.204-0.058-0.396-0.112-0.545-0.217l-0.211-0.147l0.152-0.208
	c0.041-0.057,0.073-0.093,0.098-0.119c0-0.026,0-0.061,0-0.111l0.001-0.192c0.004-0.394,0.001-0.623-0.13-0.751
	c-0.171-0.169-0.623-0.24-1.379-0.223l-0.307,0.008l0.052-0.302c0.185-1.085-0.187-1.383-0.533-1.521L38.881,9.73
	c-0.566-0.105-0.666-0.32-0.652-0.657c0.007-0.162,0.014-0.347-0.307-0.656c-0.58-0.56-1.612,0.029-1.623,0.036l-0.378,0.22V8.235
	c0-0.555-0.386-0.914-0.982-0.914c-0.517,0-0.911,0.057-1.11,0.161l-0.616,0.501h-0.089c-0.433,0-0.712-0.19-0.959-0.357
	c-0.24-0.163-0.448-0.305-0.808-0.305c-0.6,0-0.893,0.404-1.177,0.794c-0.05,0.069-0.098,0.135-0.146,0.197L29.91,8.471
	l-0.182-0.086c-0.25-0.118-0.415-0.267-0.561-0.399c-0.222-0.201-0.369-0.334-0.755-0.334c-0.174,0-0.266,0.119-0.421,0.37
	c-0.058,0.096-0.114,0.185-0.175,0.253c-0.163,0.181-0.266,0.368-0.365,0.548c-0.196,0.356-0.399,0.724-0.991,0.939l-0.2,0.071
	l-0.305-0.536c-1.092,1.046-3.403,6.158-3.403,7.321c0,0.437,0.152,0.541,0.382,0.698c0.279,0.192,0.626,0.43,0.626,1.194
	c0,0.477-0.338,0.855-0.636,1.189c-0.228,0.256-0.444,0.497-0.444,0.702c0,0.677,0.899,0.929,1.465,0.929l0.084,0.49l-0.308,0.109
	c0.224,0.568,0.705,0.867,1.403,0.867c1.575,0,3.12-1.118,4.142-1.858l0.176-0.127c0.638-0.454,1.294-0.92,1.47-1.754l-0.091-0.055
	l0.147-0.472l0.367,0.055C31.734,18.369,32.41,18.121,33.406,18.121z"/>
<path fill="#1E2758" d="M26.117,16.788c0,0,1.277,0.491,1.277,0.756c0,0.359-0.825,0.756-1.375,1.229h-0.687
	c0.246-0.804,0-0.511,0-1.229C25.332,17.005,25.902,16.788,26.117,16.788"/>
<path fill="#1E2758" d="M26.113,19.025h-1.122l0.1-0.326c0.124-0.404,0.105-0.461,0.072-0.565c-0.035-0.11-0.083-0.262-0.083-0.59
	c0-0.672,0.665-1.009,1.037-1.009l0.091,0.017c1.438,0.553,1.438,0.872,1.438,0.992c0,0.371-0.409,0.657-0.883,0.988
	c-0.196,0.136-0.402,0.28-0.579,0.432L26.113,19.025 M25.661,18.521h0.266c0.172-0.141,0.364-0.275,0.547-0.403
	c0.222-0.155,0.58-0.405,0.654-0.538c-0.132-0.122-0.584-0.353-1.048-0.536c-0.139,0.024-0.495,0.164-0.495,0.5
	c0,0.25,0.031,0.35,0.059,0.437C25.695,18.141,25.716,18.264,25.661,18.521z"/>
<path fill="#1E2758" d="M43.447,21.024l-0.501-0.061c0.096-0.78-0.157-0.871-0.54-1.008c-0.276-0.1-0.62-0.223-0.73-0.647
	c-0.036-0.145-0.06-0.312-0.084-0.489c-0.062-0.441-0.131-0.941-0.438-1.131c-0.229-0.141-0.605-0.126-1.116,0.047l-0.346,0.117
	l0.013-0.366c0.026-0.705-0.137-1.196-0.485-1.458c-0.578-0.435-1.53-0.14-1.54-0.136l-0.38,0.124l0.052-0.396
	c0.061-0.478-0.094-0.97-0.426-1.348c-0.243-0.276-0.548-0.448-0.797-0.448c-0.36,0-0.625,0.139-0.906,0.287
	c-0.262,0.138-0.532,0.281-0.861,0.281c-0.481,0-0.817-0.178-1.142-0.349c-0.307-0.161-0.596-0.313-1.017-0.313
	c-0.481,0-0.569,0.17-0.715,0.452c-0.113,0.219-0.254,0.491-0.599,0.657l-0.218-0.455c0.192-0.092,0.271-0.243,0.369-0.434
	c0.167-0.323,0.375-0.725,1.163-0.725c0.546,0,0.921,0.198,1.252,0.372c0.295,0.155,0.551,0.29,0.907,0.29
	c0.204,0,0.399-0.103,0.626-0.222c0.308-0.162,0.656-0.346,1.141-0.346c0.395,0,0.835,0.232,1.176,0.62
	c0.347,0.395,0.544,0.888,0.563,1.391c0.413-0.071,1.118-0.11,1.656,0.296c0.421,0.317,0.65,0.832,0.684,1.534
	c0.508-0.122,0.907-0.089,1.211,0.099c0.509,0.315,0.6,0.968,0.672,1.491c0.022,0.158,0.042,0.307,0.074,0.434
	c0.039,0.149,0.144,0.2,0.412,0.296C42.981,19.625,43.591,19.844,43.447,21.024"/>
<path fill="#FFFFFF" d="M4.587,8.576h1.975c1.447-0.331,1.975-1.171,3.46-1.171c1.067,0,1.57,0.71,2.356,0.71
	c0.662,0,1.681-0.757,2.797-0.757c1.141,0,1.706,0.686,2.454,1.005c0.663,0.283,1.534,0.269,2.454,0.269
	c-0.025,0.661,0,1.055,0,1.61c0,0.568,0.76,0.343,0.76,1.264c0,0.97-0.981,0.781-0.981,1.17l-0.037,3.606
	c0.049,0.448,0.957,0.507,0.957,1.193c0,1.017-1.011,0.665-0.944,1.465c0.048,0.592,0,1.844,0,1.844
	c-1.952,0-14.233,0.012-14.847-0.012c0.038-1.335-0.021-1.152,0.025-1.796c0.036-0.52-1.129-0.839-1.129-1.714
	c0-0.602,0.7-0.567,0.761-1.134v-3.593c-0.037-0.472-1.092-0.709-1.055-1.383c0.043-0.805,0.981-0.702,0.981-1.241
	C4.574,9.675,4.599,8.8,4.587,8.576"/>
<path fill="#1E2758" d="M11.839,21.039c-3.367,0-6.55-0.002-6.857-0.015l-0.25-0.009l0.007-0.249
	c0.019-0.678,0.013-0.96,0.009-1.161c-0.004-0.2-0.007-0.321,0.016-0.647c0.008-0.104-0.191-0.277-0.366-0.43
	c-0.34-0.295-0.764-0.663-0.764-1.266c0-0.438,0.277-0.645,0.479-0.797c0.175-0.132,0.267-0.207,0.284-0.364l-0.002-3.566
	c-0.006-0.077-0.205-0.226-0.365-0.347c-0.319-0.241-0.717-0.541-0.689-1.05c0.031-0.576,0.433-0.809,0.698-0.963
	c0.219-0.128,0.283-0.177,0.283-0.264c0-0.081,0.003-0.237,0.006-0.416c0.007-0.337,0.014-0.76,0.007-0.906L4.321,8.323h2.241
	c0.527-0.127,0.957-0.349,1.374-0.565c0.602-0.311,1.17-0.605,2.086-0.605c0.634,0,1.083,0.224,1.478,0.422
	c0.308,0.154,0.575,0.287,0.878,0.287c0.239,0,0.585-0.139,0.951-0.286c0.547-0.221,1.167-0.47,1.846-0.47
	c0.854,0,1.416,0.353,1.912,0.665c0.217,0.138,0.423,0.267,0.641,0.36c0.584,0.249,1.378,0.245,2.226,0.249l0.391-0.001l-0.01,0.262
	c-0.016,0.433-0.011,0.75-0.005,1.074c0.003,0.168,0.006,0.338,0.006,0.527c0,0.104,0.032,0.134,0.197,0.243
	c0.224,0.147,0.563,0.369,0.563,1.021c0,0.759-0.504,0.977-0.805,1.108c-0.067,0.029-0.167,0.073-0.189,0.097l-0.024,3.573
	c0.007,0.048,0.154,0.145,0.296,0.237c0.278,0.183,0.661,0.433,0.661,0.954c0,0.68-0.398,0.905-0.661,1.053
	c-0.236,0.133-0.303,0.181-0.285,0.391c0.049,0.601,0.002,1.823,0.001,1.875l-0.01,0.243h-2.118
	C16.354,21.038,14.056,21.039,11.839,21.039 M5.25,20.524c1.515,0.015,8.976,0.011,12.712,0.009l1.631-0.001
	c0.012-0.39,0.027-1.156-0.007-1.571c-0.045-0.542,0.293-0.732,0.54-0.872c0.243-0.137,0.404-0.228,0.404-0.614
	c0-0.237-0.164-0.356-0.432-0.531c-0.229-0.15-0.489-0.32-0.524-0.635l0.036-3.635c0-0.315,0.277-0.435,0.48-0.523
	c0.28-0.121,0.501-0.217,0.501-0.645c0-0.38-0.14-0.472-0.334-0.599c-0.18-0.118-0.426-0.279-0.426-0.665
	c0-0.186-0.003-0.353-0.006-0.519c-0.004-0.263-0.008-0.522-0.002-0.839c-0.849,0-1.647-0.013-2.293-0.289
	c-0.254-0.109-0.487-0.255-0.712-0.397c-0.48-0.302-0.935-0.587-1.643-0.587c-0.582,0-1.153,0.23-1.658,0.433
	c-0.43,0.173-0.802,0.323-1.139,0.323c-0.422,0-0.769-0.173-1.103-0.341c-0.363-0.181-0.738-0.368-1.253-0.368
	c-0.793,0-1.285,0.254-1.854,0.549c-0.424,0.219-0.904,0.467-1.55,0.615L4.842,8.827c0,0.198-0.005,0.455-0.009,0.677
	C4.829,9.679,4.827,9.832,4.827,9.911c0,0.39-0.297,0.562-0.534,0.7c-0.268,0.156-0.433,0.265-0.449,0.554
	c-0.012,0.225,0.186,0.392,0.49,0.621c0.266,0.199,0.54,0.406,0.565,0.729L4.9,16.128c-0.043,0.409-0.298,0.601-0.484,0.741
	c-0.187,0.14-0.277,0.215-0.277,0.393c0,0.373,0.3,0.634,0.59,0.886c0.277,0.241,0.564,0.49,0.538,0.846
	c-0.021,0.302-0.018,0.415-0.015,0.601C5.256,19.772,5.261,20.013,5.25,20.524z"/>
<path fill="#1E2758" d="M12.019,18.821c-2.84,0-5.594-0.006-5.826-0.006l-0.255-0.001l0.003-0.255c0.025-1.867,0.001-9.843,0-9.923
	l0.505-0.002c0,0.077,0.022,7.43,0.002,9.677c3.774,0.007,10.365,0.011,11.714-0.016c-0.001-2.43-0.013-9.719-0.013-9.719
	l0.505-0.001c0,0,0.013,7.824,0.013,9.963v0.23l-0.23,0.021C18.169,18.814,15.045,18.821,12.019,18.821"/>
<rect x="12.064" y="8.138" fill="#1E2758" width="0.505" height="10.448"/>
<path fill="#1E2758" d="M12.5,17.298c0.516,0.024,1.462,0.371,2.381,0.65c1.189,0.361,2.452,0.108,3.386,0.295
	c0.295,0.059-5.767,0.107-5.767,0.107C12.525,17.18,12.5,17.298,12.5,17.298"/>
<path fill="#1E2758" d="M12.242,18.604l0.006-0.26c0.009-0.415,0.011-0.66,0.011-0.805l-0.065-0.003l0.105-0.515l0.231,0.023
	c0.021,0.002,0.04,0.004,0.058,0.007c0.419,0.038,1.013,0.227,1.695,0.445c0.221,0.07,0.447,0.142,0.671,0.21
	c0.657,0.2,1.339,0.202,1.999,0.204c0.488,0.001,0.949,0.003,1.364,0.086l0.222,0.044l-0.011,0.231
	c-0.01,0.103-0.016,0.169-0.309,0.213l-0.002,0.007c-0.005-0.002-0.011-0.003-0.017-0.004c-0.528,0.074-1.929,0.085-5.698,0.115
	L12.242,18.604 M12.764,17.586c0,0.133-0.002,0.3-0.007,0.509c0.529-0.004,1.112-0.01,1.695-0.016
	c-0.108-0.034-0.216-0.069-0.322-0.102C13.616,17.813,13.125,17.656,12.764,17.586z"/>
<path fill="#1E2758" d="M11.629,18.846c0-0.261,0.305-0.473,0.681-0.473c0.377,0,0.681,0.212,0.681,0.473
	c0,0.261-0.304,0.473-0.681,0.473C11.934,19.319,11.629,19.107,11.629,18.846"/>
<path fill="#1E2758" d="M12.31,19.571c-0.523,0-0.933-0.319-0.933-0.725c0-0.407,0.41-0.725,0.933-0.725s0.933,0.318,0.933,0.725
	C13.243,19.252,12.833,19.571,12.31,19.571 M12.31,18.626c-0.262,0-0.428,0.13-0.428,0.22c0,0.088,0.17,0.22,0.428,0.22
	c0.262,0,0.428-0.13,0.428-0.22C12.738,18.756,12.572,18.626,12.31,18.626z"/>
<path fill="#1E2758" d="M11.976,17.298c-0.515,0.024-1.461,0.371-2.38,0.65c-1.19,0.361-2.452,0.108-3.386,0.295
	c-0.295,0.059,5.766,0.107,5.766,0.107C11.952,17.18,11.976,17.298,11.976,17.298"/>
<path fill="#1E2758" d="M12.234,18.604l-0.26-0.002c-3.769-0.03-5.17-0.041-5.697-0.115c-0.006,0.001-0.012,0.002-0.018,0.004
	l-0.001-0.007c-0.294-0.044-0.3-0.11-0.31-0.213l-0.022-0.226l0.234-0.049c0.415-0.083,0.876-0.085,1.364-0.086
	c0.66-0.002,1.342-0.004,1.999-0.204c0.224-0.067,0.45-0.14,0.671-0.21c0.681-0.218,1.275-0.407,1.695-0.445
	c0.017-0.003,0.036-0.005,0.057-0.007l0.229-0.026l0.108,0.518l-0.066,0.003c0,0.145,0.003,0.39,0.011,0.805L12.234,18.604
	 M10.025,18.079c0.582,0.006,1.165,0.012,1.694,0.016c-0.004-0.209-0.007-0.376-0.006-0.509c-0.361,0.07-0.852,0.227-1.366,0.391
	C10.24,18.011,10.133,18.045,10.025,18.079z"/>
<path fill="#FFFFFF" d="M14.317,54.963c0-3.371,2.836-6.105,6.336-6.105c3.499,0,6.336,2.734,6.336,6.105s-2.837,6.102-6.336,6.102
	C17.153,61.064,14.317,58.334,14.317,54.963"/>
<path fill="#1E2758" d="M20.653,61.316c-3.633,0-6.588-2.85-6.588-6.354c0-3.506,2.955-6.357,6.588-6.357
	c3.633,0,6.589,2.852,6.589,6.357C27.242,58.467,24.286,61.316,20.653,61.316 M20.653,49.109c-3.354,0-6.084,2.626-6.084,5.854
	c0,3.227,2.73,5.851,6.084,5.851c3.355,0,6.084-2.624,6.084-5.851C26.737,51.735,24.008,49.109,20.653,49.109z"/>
<path fill="#FFFFFF" d="M31.737,40.302c0-3.371,2.837-6.103,6.336-6.103c3.499,0,6.336,2.732,6.336,6.103
	c0,3.372-2.837,6.103-6.336,6.103C34.574,46.404,31.737,43.674,31.737,40.302"/>
<path fill="#1E2758" d="M38.073,46.656c-3.633,0-6.588-2.85-6.588-6.354c0-3.504,2.955-6.355,6.588-6.355
	c3.633,0,6.588,2.851,6.588,6.355C44.661,43.806,41.706,46.656,38.073,46.656 M38.073,34.451c-3.355,0-6.084,2.625-6.084,5.851
	c0,3.226,2.729,5.851,6.084,5.851c3.354,0,6.084-2.625,6.084-5.851C44.157,37.076,41.427,34.451,38.073,34.451z"/>
<path fill="#FFFFFF" d="M48.172,54.963c0-3.371,2.837-6.105,6.337-6.105c3.499,0,6.336,2.734,6.336,6.105s-2.837,6.102-6.336,6.102
	C51.009,61.064,48.172,58.334,48.172,54.963"/>
<path fill="#1E2758" d="M54.509,61.316c-3.633,0-6.589-2.85-6.589-6.354c0-3.506,2.956-6.357,6.589-6.357
	c3.633,0,6.588,2.852,6.588,6.357C61.097,58.467,58.142,61.316,54.509,61.316 M54.509,49.109c-3.355,0-6.085,2.626-6.085,5.854
	c0,3.227,2.73,5.851,6.085,5.851c3.354,0,6.083-2.624,6.083-5.851C60.592,51.735,57.863,49.109,54.509,49.109z"/>
<path fill="#1E2758" d="M44.242,17.72c-0.888-0.976-1.719-2.047-2.326-2.829c-0.391-0.503-0.796-1.024-0.901-1.098
	c-0.222-0.09-0.48-0.373-0.87-0.8c-1.07-1.174-3.062-3.357-6.827-3.566c-1.637-0.091-5.957,0.51-6.081,1.433l-0.5-0.068
	c0.216-1.608,5.665-1.923,6.609-1.869c3.971,0.221,6.053,2.503,7.172,3.729c0.294,0.323,0.572,0.628,0.714,0.687
	c0.158,0.067,0.346,0.295,1.082,1.242c0.602,0.776,1.427,1.837,2.301,2.8L44.242,17.72"/>
<path fill="#1E2758" d="M31.49,18.964l-0.498-0.078c0.011-0.066,0.018-0.135,0.022-0.206c-0.153-0.021-0.428-0.024-0.608-0.026
	c-0.337-0.004-0.551-0.008-0.688-0.049l-0.161-0.048l-0.051-0.196c-0.023-0.218,0.186-0.333,0.427-0.465
	c0.046-0.025,0.086-0.046,0.107-0.061l0.095,0.136L30.1,17.78c1.081-0.416,1.877-0.912,1.937-1.206
	c0.004-0.02,0.011-0.058-0.058-0.126c-0.414-0.399-0.728-0.818-0.98-1.154c-0.146-0.196-0.278-0.372-0.406-0.512
	c-0.464-0.506-0.982-0.721-1.728-0.721c-0.455,0-1.246,0.692-1.77,1.15c-0.219,0.193-0.41,0.359-0.548,0.456l-0.321-0.387
	l0.128-0.121c0.367-0.346,1.228-1.156,1.228-1.729c0-0.967-0.478-1.877-0.94-2.757c-0.32-0.608-0.621-1.182-0.769-1.767l0.489-0.124
	c0.133,0.528,0.421,1.076,0.727,1.656c0.49,0.935,0.998,1.901,0.998,2.992c0,0.141-0.029,0.284-0.079,0.427
	c0.298-0.181,0.592-0.301,0.857-0.301c0.89,0,1.537,0.273,2.1,0.885c0.139,0.152,0.281,0.34,0.438,0.551
	c0.254,0.338,0.541,0.722,0.926,1.093c0.222,0.214,0.233,0.439,0.202,0.589c-0.117,0.581-1.101,1.11-1.998,1.477
	c0.581,0.008,0.99,0.035,0.99,0.385C31.523,18.687,31.511,18.83,31.49,18.964"/>
<path fill="#1E2758" d="M23.904,21.766v-0.505c1.378,0,2.067-0.103,2.632-0.397c0.872-0.456,1.915-1.19,2.142-1.719l0.464,0.199
	c-0.383,0.89-2.043,1.795-2.372,1.968C26.037,21.692,25.164,21.766,23.904,21.766"/>
<path fill="#1E2758" d="M36.668,84.843c-0.022,0-0.044-0.001-0.065-0.001C32.497,84.701,1.224,69.384,1.316,39.181
	C1.318,38.645,1.323,3.03,1.323,3.03v-0.5h73.623v36.806c-0.241,14.556-8.371,25.289-15.149,31.73
	C50.271,80.121,39.235,84.843,36.668,84.843 M2.323,3.53C2.322,7.849,2.318,38.686,2.316,39.184
	c-0.09,29.543,30.328,44.521,34.321,44.658c0.015,0.001,0.032,0.001,0.048,0.001c2.168,0.001,12.987-4.532,22.423-13.501
	c6.639-6.311,14.603-16.813,14.838-31.014V3.53H2.323z"/>
</svg>
