<?xml version="1.0" encoding="utf-8"?>
<!-- Generator: Adobe Illustrator 15.0.0, SVG Export Plug-In . SVG Version: 6.00 Build 0)  -->
<!DOCTYPE svg PUBLIC "-//W3C//DTD SVG 1.1//EN" "http://www.w3.org/Graphics/SVG/1.1/DTD/svg11.dtd">
<svg version="1.1" id="Layer_1" xmlns="http://www.w3.org/2000/svg" xmlns:xlink="http://www.w3.org/1999/xlink" x="0px" y="0px"
	 width="96.564px" height="30.805px" viewBox="0 0 96.564 30.805" enable-background="new 0 0 96.564 30.805" xml:space="preserve">
<text transform="matrix(1 0 0 1 -2.9263 30.8047)" display="none"><tspan x="0" y="0" display="inline" fill="#041E42" font-family="'SportsWorld'" font-size="44" letter-spacing="-3">S</tspan><tspan x="26.048" y="0" display="inline" fill="#041E42" font-family="'SportsWorld'" font-size="44" letter-spacing="-4">A</tspan><tspan x="55.748" y="0" display="inline" fill="#BA0C2F" font-family="'SportsWorld'" font-size="44" letter-spacing="-4">V</tspan><tspan x="85.448" y="0" display="inline" fill="#BA0C2F" font-family="'Lobster1.3'" font-size="45" letter-spacing="-2">e</tspan></text>
<g>
	<path fill="#FFFFFF" d="M25.436,10.826h-8.229l-0.88-3.212h-6.117l-1.144,0.88v1.804l0.968,0.748l10.605,1.76l5.148,4.004v8.801
		l-6.293,5.193H6.249L0,25.611v-5.588h8.229l0.88,3.212h6.425l1.1-0.924v-2.068l-0.836-0.748l-10.562-1.76L0,13.422V5.017L5.985,0
		h13.466l5.985,5.017V10.826z"/>
	<path fill="#FFFFFF" d="M58.216,24.115v6.689H42.593v-6.689l2.333-0.88l-0.792-2.728h-6.645l-0.748,2.728l2.156,0.88v6.689H25.695
		v-6.689l3.389-0.88l4.489-15.622l-2.861-0.88V0H48.49l5.941,23.235L58.216,24.115z M38.765,15.227h3.917l-1.98-6.909L38.765,15.227
		z"/>
	<path fill="#BA0C2F" d="M81.976,7.613l-7.437,23.191H62.393L55.352,7.613l-2.904-0.88V0h15.578v6.733l-2.156,0.88l4.049,13.422
		l3.873-13.422l-2.068-0.88V0h13.246v6.733L81.976,7.613z"/>
	<path fill="#BA0C2F" d="M80.186,23.65c0-5.715,2.43-15.75,10.619-15.75c3.689,0,5.76,1.53,5.76,4.68c0,5.49-5.895,8.64-10.17,9.179
		c-0.09,0.721-0.135,1.395-0.135,1.936c0,2.97,1.484,3.869,3.24,3.869c2.115,0,3.914-1.215,5.76-2.879
		c0,4.859-3.915,6.119-8.415,6.119C82.525,30.805,80.186,27.52,80.186,23.65z M92.289,10.286c-2.52,0-4.59,5.084-5.534,9.314
		c4.14-0.045,7.064-3.599,7.109-6.794C93.864,11.86,93.64,10.286,92.289,10.286z"/>
</g>
</svg>
